<?xml version="1.0" encoding="utf-8"?>
<!-- Generator: Adobe Illustrator 26.0.2, SVG Export Plug-In . SVG Version: 6.00 Build 0)  -->
<svg version="1.1" id="Layer_1" xmlns="http://www.w3.org/2000/svg" xmlns:xlink="http://www.w3.org/1999/xlink" x="0px" y="0px"
	 viewBox="0 0 50 50" style="enable-background:new 0 0 50 50;" xml:space="preserve">
<path d="M47.5,25c0,12.5-10,22.5-22.5,22.5c-12.5,0-22.5-10-22.5-22.5c0-12.5,10-22.5,22.5-22.5C37.5,2.5,47.5,12.5,47.5,25z
	 M28.1,24.6c0.2-2.8-1.8-4-3.8-4.1c-1.9-0.1-3.7,0.6-5.4,1.2c-0.4,0.2-0.5,0.5-0.6,0.9c-0.2,0.7,0,0.8,0.6,0.6
	c0.6-0.2,1.3-0.3,1.9-0.2c0.9,0.1,1.2,0.5,1.3,1.4c0.1,1.1-0.1,2.1-0.4,3.1c-0.6,2.1-1.3,4.1-1.7,6.2c-0.5,2.7,0.8,4.6,3.4,5
	c2.1,0.3,4-0.5,5.8-1.3c0.5-0.2,0.7-0.9,0.5-1.3c-0.2-0.5-0.6,0-0.9,0c-0.1,0-0.2,0-0.2,0c-2.2,0.5-3.1-0.4-2.7-2.6
	c0.3-1.6,0.8-3.1,1.2-4.6C27.6,27.5,28.2,26.1,28.1,24.6z M27,11.2c-2,0-3.4,1.3-3.4,3.2c0,1.8,1.5,3.2,3.4,3.2
	c1.9,0,3.4-1.4,3.4-3.2C30.4,12.5,29,11.2,27,11.2z"/>
</svg>
