<?xml version="1.0" encoding="utf-8"?>
<!-- Generator: Adobe Illustrator 26.0.2, SVG Export Plug-In . SVG Version: 6.00 Build 0)  -->
<svg version="1.1" id="Layer_1" xmlns="http://www.w3.org/2000/svg" xmlns:xlink="http://www.w3.org/1999/xlink" x="0px" y="0px"
	 viewBox="0 0 50 50" style="enable-background:new 0 0 50 50;" xml:space="preserve">
<style type="text/css">
	.st0{fill:#FFFFFF;}
</style>
<g id="home">
	<path class="st0" d="M9.3,28.9v12.9c0,5.9-0.2,5.7,5.6,5.7h4.8v-0.1v-7.3c0-2,0.8-3.7,1.9-3.7h6.8c1,0,1.9,1.7,1.9,3.7v7.4h4.8
		c5.7,0,5.6,0.1,5.6-5.7V30.4v-1.6L25,12.7L9.3,28.9z"/>
	<path class="st0" d="M40.7,5c0-1.4-1.1-2.5-2.4-2.5c-1.3,0-2.4,1.1-2.4,2.5v4l4.8,5C40.7,14,40.7,5,40.7,5z"/>
	<path class="st0" d="M46.8,24l-20-20.6c-0.5-0.5-1.1-0.8-1.8-0.8s-1.3,0.3-1.8,0.8L3.2,24c-1,1-1,2.7,0,3.7s2.6,1,3.6,0L25,9
		l18.2,18.7c0.5,0.5,1.1,0.8,1.8,0.8s1.3-0.3,1.8-0.8C47.7,26.7,47.7,25,46.8,24z"/>
</g>
</svg>
