<?xml version="1.0" encoding="utf-8"?>
<!-- Generator: Adobe Illustrator 26.0.2, SVG Export Plug-In . SVG Version: 6.00 Build 0)  -->
<svg version="1.1" id="Layer_1" xmlns="http://www.w3.org/2000/svg" xmlns:xlink="http://www.w3.org/1999/xlink" x="0px" y="0px"
	 viewBox="0 0 50 50" style="enable-background:new 0 0 50 50;" xml:space="preserve">
<style type="text/css">
	.st0{fill:#FFFFFF;stroke:#231F20;stroke-width:0.5669;stroke-miterlimit:10;}
</style>
<g>
	<path class="st0" d="M41.9,7.8H22.6v-2c0-0.7-0.5-1.2-1.2-1.2h-5.8c-0.7,0-1.2,0.5-1.2,1.2v2h-2.3c-1,0-1.9,0.9-1.9,1.9v29.8
		c0,1,0.9,1.9,1.9,1.9h29.8c1,0,1.9-0.9,1.9-1.9V9.7C43.9,8.6,43,7.8,41.9,7.8z"/>
	<path class="st0" d="M10.1,9.8h19.3v-2c0-0.7,0.5-1.2,1.2-1.2h5.8c0.7,0,1.2,0.5,1.2,1.2v2h2.3c1,0,1.9,0.9,1.9,1.9v29.8
		c0,1-0.9,1.9-1.9,1.9H10.1c-1,0-1.9-0.9-1.9-1.9V11.7C8.2,10.7,9.1,9.8,10.1,9.8z"/>
	<path class="st0" d="M37.9,11.9H18.5v-2c0-0.7-0.5-1.2-1.2-1.2h-5.8c-0.7,0-1.2,0.5-1.2,1.2v2H8.1c-1,0-1.9,0.9-1.9,1.9v29.8
		c0,1,0.9,1.9,1.9,1.9h29.8c1,0,1.9-0.9,1.9-1.9V13.8C39.8,12.7,38.9,11.9,37.9,11.9z"/>
</g>
</svg>
