<?xml version="1.0" encoding="utf-8"?>
<!-- Generator: Adobe Illustrator 26.0.2, SVG Export Plug-In . SVG Version: 6.00 Build 0)  -->
<svg version="1.1" id="Layer_1" xmlns="http://www.w3.org/2000/svg" xmlns:xlink="http://www.w3.org/1999/xlink" x="0px" y="0px"
	 viewBox="0 0 50 50" style="enable-background:new 0 0 50 50;" xml:space="preserve">
<style type="text/css">
	.st0{fill:#FFFFFF;}
</style>
<g>
	<path class="st0" d="M30.8,23c-0.9,0.1-1.4,0.4-1.4,1.4c0,2.2,0,4.3,0,6.5c0,1.7-0.2,1.9-1.9,1.9c-1.2,0-2.5-0.1-3.7,0
		c-1.3,0.1-1.6-0.4-1.6-1.7c0.1-5.3,0-10.5,0-15.8c0-1.6-0.6-2.6-2-3.3c-2.6-1.3-5.1-2.6-7.6-3.9c0-0.1,0-0.2,0-0.3
		c0.4,0,0.7-0.1,1.1-0.1c4.5,0,9.1,0,13.6,0c2,0,2.1,0.2,2.1,2.1c0.1,3.5-0.6,3.1,3.3,3.1c1,0,1.4-0.3,1.4-1.3c0-2,0-4,0-6
		C34,3.8,33.1,3,31.2,3c-8.7,0-17.3,0-26,0C3.3,3,2.4,3.8,2.4,5.7c0,10,0,20,0,30c0,1.2,0.5,2.1,1.6,2.7c5.2,2.7,10.4,5.4,15.7,8.1
		c1.5,0.8,2.4,0.2,2.4-1.5c0-2.1,0.1-4.1,0-6.2c0-1,0.3-1.5,1.4-1.4c2.5,0.1,5,0,7.5,0c2.3,0,3.1-0.8,3.1-3.1c0-2.7,0-5.5,0-8.2
		C34.2,22.8,34.1,22.8,30.8,23z"/>
	<path class="st0" d="M46.6,16.2c-2.2-2.3-4.5-4.6-6.8-6.8c-1.1-1.1-2.5-1.1-3.5-0.2c-1,1-1,2.3,0.2,3.5c0.8,0.8,1.7,1.6,2.5,2.4
		c-0.7,0.3-1.1,0.3-1.6,0.3c-3.3,0-6.6,0-9.9,0c-1.9,0-2.9,1.2-2.7,2.9c0.2,1.3,1.1,2.1,2.8,2.1c3.7,0,7.5,0,11.2,0
		c0.1,0.1,0.1,0.2,0.2,0.3c-0.9,0.8-1.7,1.6-2.5,2.5c-1.2,1.2-1.2,2.6-0.1,3.6c1,0.9,2.3,0.9,3.4-0.3c2.3-2.2,4.6-4.5,6.8-6.8
		C47.8,18.6,47.8,17.4,46.6,16.2z"/>
</g>
</svg>
