<?xml version="1.0" encoding="utf-8"?>
<!-- Generator: Adobe Illustrator 26.0.2, SVG Export Plug-In . SVG Version: 6.00 Build 0)  -->
<svg version="1.1" id="Layer_1" xmlns="http://www.w3.org/2000/svg" xmlns:xlink="http://www.w3.org/1999/xlink" x="0px" y="0px"
	 viewBox="0 0 110 25" style="enable-background:new 0 0 110 25;" xml:space="preserve">
<style type="text/css">
	.st0{fill:#FFFFFF;}
</style>
<g>
	<path class="st0" d="M5.3,20.8c0-0.2,0.1-0.6,0.2-1.1s0.2-0.9,0.5-1.1c0.5-0.7,0.9-1.4,1.3-2C7.7,16,8,15.5,8.3,15
		c0.3-0.5,0.7-0.8,1-1.2c1.9-2.2,3.3-3.8,4.1-4.9c0.8-1,1.3-1.8,1.3-2.3c0-0.3-0.1-0.5-0.4-0.7c-0.2-0.2-0.6-0.2-1-0.2
		c-0.8,0-1.9,0.3-3.1,0.9S7.5,8.1,5.8,9S3.2,10.6,3,10.6c-0.3,0-0.5-0.2-0.5-0.7c0-0.4,0.1-0.9,0.4-1.6C3,7.5,3.2,6.8,3.3,6.4
		C3.4,6,3.6,5.6,3.8,5.3C4.1,5,4.5,4.6,5.1,4.2s1.6-1,2.8-1.6l0.2,0.6c1.1-0.4,2-0.8,3-1c1-0.2,1.7-0.4,2.4-0.4
		c1.3,0,2.2,0.2,2.8,0.7c0.5,0.4,0.8,1.5,0.8,3c0,0.9-0.1,1.6-0.4,2.1S16,9,15.3,10c-1.6,2.4-2.8,4-3.5,4.9
		c-2.3,2.7-3.4,4.3-3.4,4.8c0,0.2,0.2,0.4,0.5,0.4s0.7-0.2,1.1-0.6c0.5-0.4,1.1-1,1.8-1.8s1.7-1.8,2.9-3.2c1.3-1.5,2.4-2.8,3.4-4
		c0.9-1.1,1.7-2.1,2.2-2.9c0.5-0.7,0.9-1.3,0.9-1.3c0.6-0.7,1.3-1.5,1.9-2c0.7-0.5,1.1-0.7,1.3-0.7c0.1,0,0.3,0.1,0.5,0.4
		c0.2,0.2,0.4,0.5,0.5,0.9c0.1,0.4,0.2,0.6,0.2,0.8c0,0.1-0.1,0.3-0.4,0.9c-0.3,0.5-0.5,1-0.9,1.6c-0.3,0.5-0.8,1.4-1.5,2.5
		c-1.6,2.5-2.7,4.6-3.5,6.3c-0.8,1.7-1.2,2.8-1.2,3.3c0,0.2,0.1,0.4,0.2,0.5c0.1,0.2,0.2,0.2,0.4,0.2s0.5-0.1,1-0.4s1-0.7,1.6-1.3
		c0.8-0.7,1.4-1.5,2-2.3s1.3-1.7,1.9-2.7c0.6-1,1.1-2,1.6-2.8c0.5-0.9,1-1.8,1.4-2.8l-0.2-0.7c-0.1-0.1-0.1-0.3-0.1-0.5
		c0-0.2,0.4-0.7,1-1.7S29.8,4,30,4c0.2,0,0.4,0.2,0.6,0.5c0.2,0.4,0.2,0.7,0.2,1c0,0.4-0.2,1.2-0.5,2.4c-0.4,1.2-0.9,2.6-1.6,4.3
		s-1.6,3.4-2.7,5.2c-0.9,1.5-1.9,2.8-2.9,4c-1.1,1-2,1.9-2.8,2.4c-0.9,0.7-1.6,0.8-1.9,0.8c-0.5,0-1-0.2-1.4-0.6
		c-0.4-0.4-0.7-0.7-0.9-1c-0.2-0.3-0.3-0.6-0.4-1c-0.1-0.4-0.1-0.7-0.1-1.3c0-1,0.2-2.2,0.8-3.5c0.5-1.3,1.3-3,2.3-5
		c-3.3,4.2-5.8,7.2-7.6,9.1s-3.1,2.8-4,2.8c-0.5,0-1-0.3-1.4-1C5.5,22.6,5.3,21.8,5.3,20.8z"/>
	<path class="st0" d="M34.6,18.8v0.4c0,0.7,0.2,1.3,0.5,1.6c0.3,0.4,0.8,0.5,1.3,0.5c0.5,0,1.1-0.1,1.7-0.4c0.6-0.2,1.2-0.6,1.7-1
		c0.6-0.4,1.3-1,2.2-1.8v1c-1.3,1.6-2.5,2.8-3.6,3.7c-1.1,0.9-2.2,1.3-3.4,1.3c-1,0-1.8-0.4-2.4-1.2c-0.6-0.8-0.9-2-0.9-3.3
		c0-1.3,0.3-2.4,0.8-3.4s1.4-2.1,2.7-3.2c0.8-0.7,1.7-1.3,2.6-1.8c0.8-0.4,1.6-0.5,2.3-0.5c0.5,0,1,0.1,1.3,0.4s0.5,0.6,0.5,1.1
		c0,0.7-0.2,1.5-0.8,2.2c-0.5,0.7-1.3,1.5-2.4,2.2C37.5,17.4,36.1,18,34.6,18.8z M34.8,17.6c1-0.4,1.9-0.9,2.6-1.5
		c0.7-0.6,1.3-1.2,1.6-1.8c0.4-0.5,0.5-0.9,0.5-1.3c0-0.2-0.1-0.4-0.4-0.4c-0.2,0-0.5,0.1-1,0.4c-0.5,0.2-0.9,0.6-1.4,1
		c-0.5,0.4-0.9,0.9-1.3,1.6C35.1,16.3,34.9,16.9,34.8,17.6z"/>
	<path class="st0" d="M56.5,18.1v1.2c-1.2,0.7-2.1,1.2-2.8,1.2c-0.4,0-0.8-0.1-1.2-0.2c-1,1.3-1.9,2.3-2.6,2.9c-0.7,0.6-1.4,1-2.1,1
		c-0.8,0-1.5-0.4-2-1.4c-0.5-0.9-0.7-2.1-0.7-3.4c0-1.9,0.5-3.9,1.6-6.2c1.1-2.2,2.4-4.3,3.9-6.2s3-3.5,4.4-4.8s2.4-1.9,2.9-1.9
		s0.7,0.4,0.7,1c0,3.1-3.8,8.4-11.3,16.1c0,0.2-0.1,0.6-0.1,1.3c0,1.6,0.4,2.4,1.3,2.4c0.3,0,0.7-0.1,1-0.4c0.4-0.2,0.8-0.8,1.5-1.6
		c-0.3-0.6-0.4-1.1-0.4-1.5c0-0.6,0.2-1.3,0.8-2.1c0.5-0.7,1.1-1.4,1.7-2c0.7-0.5,1.1-0.8,1.4-0.8c0.5,0,0.7,0.4,0.7,1
		c0,0.5-0.1,1.2-0.4,1.9c-0.2,0.7-0.7,1.6-1.1,2.6c0.2,0.2,0.4,0.3,0.5,0.4c0.1,0.1,0.3,0.1,0.5,0.1C55.1,18.9,55.8,18.6,56.5,18.1z
		 M48,15.5c0.6-0.5,1.2-1.1,1.7-1.9c0.6-0.7,1.4-1.8,2.6-3.3c1.1-1.5,2-2.6,2.6-3.5s1.1-1.8,1.4-2.4s0.5-1,0.5-1.3
		c0-0.2-0.1-0.2-0.1-0.2c-0.2,0-0.8,0.4-1.6,1.3c-0.8,0.9-1.7,2-2.7,3.5c-1.4,2.1-2.4,3.5-3,4.6C48.8,13.1,48.3,14.3,48,15.5z"/>
	<path class="st0" d="M59.9,18.6v-0.4c2.9-3.2,4.9-5.4,5.9-6.7c0.2-1.5,0.8-2.2,1.8-2.2c0.2,0,0.5,0.1,0.8,0.2l0.1,0.3
		c-0.1,0.1-0.1,0.3-0.1,0.6c0,0.2,0.1,0.6,0.2,1.3c0.2,0.6,0.3,1.1,0.4,1.5c0.1,0.4,0.1,0.9,0.1,1.4c0,0.7-0.2,1.5-0.5,2.3
		c-0.4,0.7-0.8,1.4-1.4,2.1c-0.7,0.6-1.5,1.3-2.5,2c0.4,0.1,0.7,0.1,1,0.1c0.5,0,1-0.1,1.5-0.4c0.5-0.2,1.1-0.5,1.6-0.9
		c0.5-0.4,1.2-0.9,2-1.6v1.2c-1.4,1.5-2.8,2.6-3.8,3.3c-1.1,0.7-2.1,1.1-2.9,1.1c-1.1,0-2-0.5-2.9-1.5c-0.5-0.5-0.8-1.1-1-1.6
		C59.9,20.2,59.9,19.5,59.9,18.6z M66.1,15.8l-0.3-2.6c-0.7,0.8-2.2,2.4-4.5,4.8c0.7,0.1,1.1,0.4,1.4,0.6c0.2,0.2,0.6,0.7,1,1.5
		c0.8-0.3,1.4-0.7,1.7-1.4c0.4-0.5,0.6-1.4,0.6-2.3c0-0.1,0-0.2,0-0.3C66.1,16.1,66.1,16,66.1,15.8z"/>
	<path class="st0" d="M82.1,18.1v1.3c-1.1,1.5-2.1,2.6-3.1,3.3s-1.7,1.1-2.4,1.1c-0.9,0-1.6-0.5-2-1.5c-0.5-1-0.7-2.1-0.7-3.3
		c0-0.4,0.1-0.9,0.1-1.3c0.1-0.4,0.2-0.7,0.3-1c0.1-0.2,0.4-0.7,0.7-1.3c1.6-2.6,3.1-3.9,4.4-3.9c0.7,0,1,0.2,1,0.8
		c0,0.4-0.2,0.9-0.7,1.8c-0.4,0.8-0.8,1.4-1.2,1.7c-1,1-1.6,1.7-1.9,2.1c-0.3,0.4-0.4,0.8-0.4,1.3c0,0.4,0.2,0.7,0.5,1
		s0.7,0.4,1.2,0.4c0.5,0,1.1-0.2,1.7-0.6C80.3,19.7,81.1,19,82.1,18.1z M81,10.2c-0.3,0-0.5-0.1-0.8-0.3C80,9.7,79.9,9.4,79.9,9
		c0-0.5,0.2-1,0.7-1.8c0.5-0.6,1-0.9,1.4-0.9c0.4,0,0.6,0.1,0.8,0.3c0.2,0.2,0.4,0.5,0.4,0.9c0,0.5-0.2,1-0.7,1.7
		C82,10,81.5,10.2,81,10.2z"/>
	<path class="st0" d="M91.3,9H92c0.6-1.1,1.1-1.9,1.6-2.4c0.5-0.4,1-0.7,1.7-0.7c0.7,0,0.9,0.1,0.9,0.4c0,0.1-0.2,0.5-0.7,1.1
		S94.7,8.6,94.4,9c0.4,0.1,0.7,0.1,1,0.1c0.3,0.1,0.5,0.1,0.7,0.1c-0.7,1.3-1.4,2.5-2.4,3.8c-0.3,0-0.6-0.1-0.8-0.1
		c-0.2,0-0.4-0.1-0.7-0.1c-0.2,0-0.5-0.1-0.8-0.1c-0.6,1-1.1,2-1.5,2.7c-0.4,0.8-0.7,1.6-1,2.2c-0.2,0.7-0.3,1.3-0.3,1.9
		c0,0.8,0.3,1.2,0.9,1.2c0.4,0,1-0.2,1.7-0.7c0.7-0.5,1.6-1.2,2.8-2.2v1.2c-3.1,3.4-5.2,5.2-6.7,5.2c-0.5,0-0.9-0.2-1.2-0.6
		c-0.3-0.4-0.5-0.9-0.5-1.6c0-0.4,0.1-0.9,0.2-1.6c0.2-0.6,0.5-1.5,1-2.7c-0.2,0.1-0.3,0.2-0.4,0.4c-0.1,0.1-0.3,0.2-0.4,0.4
		c-0.1,0.1-0.2,0.2-0.4,0.4s-0.3,0.2-0.4,0.4v-1.2c1.2-1,2.6-2.9,4.3-5.4c-0.2,0-0.3,0-0.5,0c-0.1,0-0.3,0-0.5,0
		c-0.7,0-1.1,0.1-1.5,0.1C87.1,13,87,13,86.9,13.1c-0.1,0.1-0.2,0.1-0.2,0.1s-0.1-0.1-0.1-0.1c0-0.4,0.2-0.9,0.7-1.8
		c0.4-0.7,0.7-1.1,1.1-1.5c0.4-0.3,0.7-0.5,1.2-0.6C89.8,9,90.4,9,91.3,9z"/>
	<path class="st0" d="M100.1,18.8v0.4c0,0.7,0.2,1.3,0.5,1.6c0.3,0.4,0.8,0.5,1.3,0.5c0.5,0,1.1-0.1,1.7-0.4c0.6-0.2,1.2-0.6,1.7-1
		c0.6-0.4,1.3-1,2.2-1.8v1c-1.3,1.6-2.5,2.8-3.6,3.7c-1.1,0.9-2.2,1.3-3.4,1.3c-1,0-1.8-0.4-2.4-1.2c-0.6-0.8-0.9-2-0.9-3.3
		c0-1.3,0.3-2.4,0.8-3.4s1.4-2.1,2.7-3.2c0.8-0.7,1.7-1.3,2.6-1.8c0.8-0.4,1.6-0.5,2.3-0.5c0.5,0,1,0.1,1.3,0.4
		c0.3,0.2,0.5,0.6,0.5,1.1c0,0.7-0.2,1.5-0.8,2.2c-0.5,0.7-1.3,1.5-2.4,2.2C103,17.4,101.7,18,100.1,18.8z M100.3,17.6
		c1-0.4,1.9-0.9,2.6-1.5c0.7-0.6,1.3-1.2,1.6-1.8c0.4-0.5,0.5-0.9,0.5-1.3c0-0.2-0.1-0.4-0.4-0.4c-0.2,0-0.5,0.1-1,0.4
		c-0.5,0.2-0.9,0.6-1.4,1c-0.5,0.4-0.9,0.9-1.3,1.6C100.7,16.3,100.4,16.9,100.3,17.6z"/>
</g>
</svg>
