<?xml version="1.0" encoding="utf-8"?>
<!-- Generator: Adobe Illustrator 26.0.2, SVG Export Plug-In . SVG Version: 6.00 Build 0)  -->
<svg version="1.1" id="Layer_1" xmlns="http://www.w3.org/2000/svg" xmlns:xlink="http://www.w3.org/1999/xlink" x="0px" y="0px"
	 viewBox="0 0 525 300" style="enable-background:new 0 0 525 300;" xml:space="preserve">
<style type="text/css">
	.st0{fill:#FFFFFF;}
	.st1{fill:#F7B239;}
	.st2{fill:none;stroke:#F7B239;stroke-width:2.8346;stroke-miterlimit:10;}
	.st3{fill:#E6AD28;}
</style>
<g>
	<path class="st0" d="M505.2,169.7C505.2,169.7,505.2,169.7,505.2,169.7c-2.8,0-5,2.3-5,5.1c0.2,20.4-20.8,41-57.8,56.5
		c-3.8,1.6-7.7,3.1-11.7,4.6l5.2-14.6c0.5-1.5,0.3-3.2-0.6-4.6c-0.9-1.3-2.5-2.1-4.1-2.1h-3.3c-2.1,0-4,1.4-4.7,3.4
		c-2.2,6.3-3.9,11.2-5.3,15.2c-1.4-4-3.2-9-5.4-15.3c-0.7-2-2.6-3.3-4.7-3.3h-3.5c-0.4,0-0.8,0-1.1,0.1c-0.8-0.6-1.8-0.9-2.8-0.9
		c-0.1,0-0.2,0-0.2,0c-2.7,0.1-5.3,0.8-7.5,2c-0.9-0.8-2-1.3-3.3-1.3h-3.1c-2.8,0-5,2.2-5,5c0,0.3,0,0.8,0,1.4c0,0.5,0,1.2,0,2
		c-2.7-5.2-7.7-9.2-15.4-9.2c-4.9,0-9.1,1.7-12.2,4.7c-0.1-0.3-0.1-0.5-0.3-0.8c-0.8-1.9-2.6-3.1-4.6-3.1h-4c-1.3,0-2.6,0.5-3.5,1.5
		c-1.8,1.8-4.5,4.6-7.4,7.4v-18.8c0-2.8-2.2-5-5-5h-3.1c-0.9,0-1.7,0.3-2.5,0.7c0.3-0.4,0.6-0.7,0.8-1c0.7-0.9,1.3-1.6,1.7-2.1
		c2.8-3.3,6-6.8,9.6-10.5c3.3-3.4,6.9-6.8,10.8-10.2l-7,14.6c-0.6,1.2-1.1,2.3-1.4,3.3c-0.5,1.4-0.7,2.5-0.7,3.6
		c0,2.2,0.6,4.1,1.7,5.7c1.5,2,3.6,3.1,5.9,3.1c2.7,0,6.9-1.1,22.9-13c0.7,2.5,1.8,4.7,3.3,6.5c3.1,4,7.5,6.1,12.7,6.1
		c3.8,0,7.6-1.2,11.4-3.7c2.9-1.9,5.8-4.4,9-7.8c0.4,0,0.6,0,0.8,0c2.7,0,5.5-0.7,8.5-2.2c-0.7,1-1.1,2.3-1.1,3.6
		c0,1.8,0.7,5.2,5.1,7.8c2.5,1.5,5.4,2.2,8.6,2.2c1.7,0,3.6-0.3,5.6-0.9c1.6-0.5,3.6-1.3,5.9-2.3c4.1-0.4,8.3-1.6,12.5-3.6
		c4.3-2.1,10.4-6.2,18.5-12.5c1.2-0.9,1.9-2.4,1.9-3.9v-5.5c0-1.9-1.1-3.7-2.8-4.5c-0.7-0.3-1.4-0.5-2.2-0.5c-1.1,0-2.2,0.4-3.1,1.1
		c-4.6,3.7-8.5,6.7-11.4,8.8c0-0.2,0.1-0.3,0.1-0.5c1.6-6.6,2.3-14.2,2.3-22.6v-2.8c1.7-1.7,3.1-3.4,4.1-5.1
		c1.7-2.7,2.5-5.1,2.5-7.4c0-2.2-0.8-4.3-2.3-5.9c-1.6-1.7-3.7-2.6-5.9-2.6c-1.9,0-5.5,0.6-8.1,4.8c-1.3,2-2.4,4.8-3.2,8.6
		c-3.5,4.7-7.4,9.2-11.6,13.4c-3.8,3.9-7.9,7.6-12.1,10.9c0.8-2.8,1.2-5.4,1.2-7.8c0-3.2-0.9-6.1-2.6-8.4c-1.8-2.4-4.3-3.9-7.2-4.1
		c0,0,0-0.1,0-0.1c0-1.8-0.6-3.4-1.7-4.8c-1.3-1.5-3.1-2.4-5.1-2.4c-2,0-4.3,0.6-7.8,2.1c-3,1.3-5.9,2.8-8.5,4.7
		c-5.7,4.1-10.2,9.1-13.4,14.8c-1.4,2.6-2.6,5.3-3.4,8c-2.8,2.2-5.4,4.3-7.7,6c0,0,8.6-18.6,8.6-18.7c0.7-1.7,1.2-2.9,1.5-3.8
		c0.4-1.2,0.6-2.3,0.6-3.4c0-2-0.4-3.7-1.3-5.1c-1.3-2-3.4-3.2-5.8-3.2c-4,0-9,2.7-16.9,9.1c-2.7,2.2-5.8,4.9-9.4,8.2l4.2-8.9
		c0.7-1.5,0.6-3.4-0.3-4.8c-0.9-1.4-2.5-2.3-4.2-2.3h-5.7c-1.9,0-3.7,1.1-4.5,2.8l-5.8,11.9c-0.1,0.1-0.7,1.2-3.8,4.4
		c-2.4,2.4-5.3,4.8-8.5,7.1c-0.4,0.3-0.7,0.6-1,0.9c-2.7,2.2-5.2,4.1-7.5,5.8c0,0,7.4-15.8,7.4-15.9c0.7,0,1.3-0.2,1.9-0.5
		c1.6-0.8,2.7-2.4,2.7-4.2l0.3-5.1c0.1-1.8-0.8-3.6-2.4-4.5c-2.1-1.3-4.3-2.2-6.6-2.8c-2.2-0.6-4.6-0.8-7.3-0.8
		c-6.3,0-12.8,1.6-19.3,4.7c-6.5,3.1-12.2,7.3-17,12.5c-2.8,3.2-5,6.4-6.4,9.8c-4.1,3.2-7.5,5.9-10.2,7.8c0-0.2,0.1-0.3,0.1-0.5
		c1.6-6.6,2.3-14.2,2.3-22.6v-2.8c1.7-1.7,3.1-3.4,4.1-5.1c1.7-2.7,2.5-5.1,2.5-7.4c0-2.2-0.8-4.3-2.3-5.9c-1.6-1.7-3.7-2.6-5.9-2.6
		c-1.9,0-5.5,0.6-8.2,4.8c-1.3,2-2.4,4.8-3.2,8.6c-3.5,4.7-7.4,9.2-11.6,13.4c-4.4,4.5-9.2,8.7-14.1,12.5c-0.3,0.2-0.5,0.5-0.8,0.7
		c-8.6,6.8-14.8,11.2-18.2,13.1c-3.3,1.8-6.3,2.7-8.6,2.7c-1.4,0-2.3-0.3-2.8-0.8c-0.5-0.5-0.8-1.4-0.9-2.6
		c9.3-0.2,17.4-2.9,24.2-8.1c7.4-5.7,11.1-12.4,11.1-20c0-4.7-2.2-7.6-4-9.2c-2.4-2.1-5.6-3.1-9.5-3.1c-4,0-8.3,1.3-12.9,3.8
		c-4.3,2.3-8.5,5.6-12.7,9.7c-3.8,3.8-6.7,7.9-8.7,12c-0.5,1.1-1,2.3-1.4,3.4l-2.4,1.8c-4.4,3.3-7.7,5.8-10.2,7.5l14.6-35.6h6.4
		c2.1,0,3.9-1.3,4.7-3.2l1.6-4.2c0.6-1.5,0.4-3.3-0.5-4.6s-2.5-2.2-4.1-2.2h-2.2l3.9-9.2c1.4-0.4,2.6-0.9,3.7-1.3
		c0.6-0.2,1.3-0.5,1.9-0.7c12.5-4.4,25.8-6.9,39.3-7.6c2.2-0.1,4.3-0.2,6.5-0.2c11.1,0,22.1,1.5,32.5,4.5c10.7,3.1,21.1,8,30.8,14.6
		c0.4,0.3,0.9,0.5,1.3,0.8c0.6,0.6,1.2,1.1,2,1.4c0.2,0.1,0.5,0.3,0.8,0.3c0.6,0.2,1.1,0.3,1.7,0.3c0.8,0,1.7-0.2,2.4-0.6
		c1.8-1,2.8-2.8,2.7-4.8c-0.1-1.2-0.6-2.3-1.4-3.2c-0.5-0.7-1.2-1.2-1.7-1.5c-2.3-2.3-4.8-4.1-7.3-5.8l-0.7-0.5
		c-9-6.3-18.5-11.3-28.4-14.9c-9.5-3.4-19.2-5.4-28.9-6c-2-0.1-4-0.2-6-0.2c-8.7,0-17.4,1.1-25.9,3.4c3.7-1.7,7.4-3.2,10.8-4.7
		c3.9-1.7,8.1-3.3,12.7-4.9c4-1.4,8.2-2.7,12.4-3.9c0.3,1,0.7,2.1,1.4,3c2.7,4,6.7,6.5,11.2,7.1c5,0.7,9.3,1.9,13.1,3.9
		c0.2,0.1,0.7,0.3,1.3,0.5c0.1,0.1,0.2,0.1,0.4,0.2c0.2,0.1,0.4,0.2,0.6,0.3c0.7,0.4,1.5,0.6,2.4,0.6c0.8,0,1.6-0.2,2.3-0.6
		c2-1.1,3-3.3,2.6-5.5c1.6,0.7,3.2,1.5,4.7,2.4c1.3,1.1,2.7,1.3,3.5,1.3c1.6,0,3-0.7,4-1.9c0.8-1,1.3-2.3,1.2-3.6
		c1.7,1,3.4,2.1,5,3.3c0.2,0.2,0.5,0.4,1,0.7c0.3,0.2,0.7,0.4,1,0.6c0.7,0.4,1.6,0.7,2.5,0.7c0.3,0,0.7,0,1.1-0.1
		c2.2-0.5,3.8-2.3,3.9-4.5c0-0.1,0-0.3,0-0.4c0.2,0.2,0.5,0.3,0.7,0.5c0.3,0.2,0.7,0.6,1.1,1.1c0.8,0.8,1.7,1.7,2.9,2.5
		c0.1,0.1,0.2,0.2,0.3,0.3c0.9,0.8,2.1,1.2,3.3,1.2c0.8,0,2-0.2,3.1-1.1c1.1-0.8,1.7-2,1.9-3.3c1.1,1,2.2,2.1,3.2,3.3
		c0.2,0.2,0.5,0.7,1,1.2c0.8,1,2,1.7,3.4,2c0.3,0,0.5,0.1,0.8,0.1c2.3,0,4.3-1.6,4.9-3.7c1.2,1.3,2.3,2.6,3.2,4
		c0.6,1.4,1.6,2.3,2.7,2.8c0.7,0.4,1.6,0.6,2.4,0.6c0.9,0,1.7-0.2,2.5-0.6c1-0.6,1.8-1.5,2.2-2.5c0.9,1.3,1.8,2.7,2.5,4.1
		c0.2,0.4,0.4,0.8,0.6,1.1l0.1,0.2c0.5,0.8,1.5,1.9,3.3,2.3l0,0c0.4,0.1,0.9,0.2,1.3,0.2c1.2,0,2.3-0.4,3.2-1.2
		c0.5-0.4,0.8-0.9,1.1-1.4c1,1.7,1.9,3.5,2.6,5.6c0.1,0.3,0.3,0.6,0.4,0.8c0.5,1.4,1.6,2.5,3,3c0.5,0.2,1.1,0.3,1.7,0.3
		c1.2,0,2.3-0.4,3.3-1.2c0.4-0.4,0.8-0.8,1.1-1.3c0.7,1.5,1.3,3.1,1.6,4.8c0.1,0.6,0.3,1.1,0.5,1.5c0.3,1.3,1,2.4,2.1,3.1
		c0.8,0.5,1.8,0.8,2.7,0.8c0.6,0,1.2-0.1,1.8-0.3c1-0.3,1.8-1,2.4-1.8c0.8,2.3,1.3,4.8,1.8,7.1c0.5,2.3,2.5,4,4.9,4
		c0.1,0,0.3,0,0.4,0c2.5-0.2,4.5-2.2,4.6-4.7c0-0.4,0-0.7,0.1-1.1c0.1-0.9,0.1-1.8,0.1-2.8c0-3.7,0.6-7.4,1.1-11.4l0.3-2.2
		c0.1-1,0.2-2,0.2-2.9c0.1,0,0.1,0.1,0.2,0.1c0,0.4,0,0.8,0,1.2c0.2,3.6,1.9,6.2,3.4,8c2.4,3,5.5,4.6,7.9,5.7
		c4.2,1.9,7.7,4.8,10.6,7.5c0.2,0.1,0.3,0.3,0.5,0.4l0.1,0.1c0.9,0.8,2,1.2,3.2,1.2c0.3,0,0.7,0,1-0.1c1.5-0.3,2.8-1.3,3.4-2.6
		c0.6-1.1,1.6-4-1.1-7.2c-3-4-5.3-8.5-7.4-12.7c-1.9-3.8-5.1-6.6-9.2-8.3c-1.2-0.5-2.5-0.7-3.8-0.7c-0.9,0-1.8,0.1-2.8,0.4
		c-0.1-0.2-0.2-0.4-0.3-0.6c2.1-0.3,3.9-0.9,5.6-1.5c0.9-0.3,1.8-0.6,2.7-0.8c3.4-0.9,7-1,10.1-1.1c0.5,0,1,0,1.5-0.1l0.5,0
		c2.5-0.2,4.4-2.1,4.6-4.6s-1.4-4.7-3.8-5.3c-1.6-0.4-3.2-0.8-4.8-1.1c-2.6-0.6-5.2-1.2-7.6-1.9c0.9-0.8,1.6-1.9,1.8-3.2l0-0.3
		c0.2-1.3-0.2-2.7-1-3.7s-2-1.7-3.4-1.9l-0.9-0.1c-0.7-0.1-1.5-0.2-2.2-0.2c-3.1-0.3-6.2-0.7-9.4-1.3c1.1-1,1.7-2.4,1.6-3.9
		c-0.1-1.8-1.1-3.4-2.7-4.3l-0.3-0.2c-0.7-0.4-1.5-0.6-2.3-0.6c-0.2,0-0.5,0-0.7,0.1l-2,0c-1.6,0-3.1-0.1-4.6-0.1h-0.1
		c-1.7,0-3.5-0.1-5.3-0.3c0.8-1.1,1.3-2.4,1.1-3.8l0-0.3c-0.4-2.5-2.5-4.3-4.9-4.3c-0.2,0-0.3,0-0.5,0c-0.7,0.1-1.3,0.1-2,0.2
		c-1.5,0.1-3.1,0.3-4.6,0.4c-2.1,0.2-4.2,0.3-6.2,0.4c0.2-0.3,0.4-0.7,0.6-1.1c0.6-1.5,0.3-3.2-0.6-4.6c-0.9-1.4-2.5-2.3-4.2-2.3
		c0,0,0,0-0.1,0c-0.5,0-1.1,0.1-1.6,0.3c-1.6,0.1-2.9,0.4-4.2,0.7c-0.3,0.1-0.7,0.2-1,0.2c-2.2,0.5-4.5,0.8-6.8,1.2
		c0.4-0.7,0.6-1.5,0.6-2.3c0-1.3-0.5-2.6-1.5-3.5c-0.9-1-2.3-1.6-3.6-1.6c-0.4,0-0.8,0.1-1.1,0.2c-0.6,0.1-1.2,0.2-1.8,0.5
		c-1.9,0.4-3.6,1-5.3,1.6c-1.4,0.5-2.7,0.9-4,1.3c-0.4,0.1-0.9,0.2-1.3,0.3c0.2-0.5,0.3-1,0.4-1.5c0.2-2.1-1-4.2-3-5
		c-0.6-0.3-1.3-0.4-2-0.4c-0.3,0-0.6,0-0.9,0.1c-0.7,0.1-1.5,0.3-2.1,0.7c-1.6,0.5-3.1,1.2-4.4,1.9c-0.4,0.2-0.7,0.4-1.1,0.5
		c-2.1,1-4.2,1.8-6.4,2.5c0.1-0.3,0.1-0.6,0.1-0.9c0.1-1.7-0.7-3.3-2-4.3c-0.9-0.6-1.9-1-3-1c-0.6,0-1.2,0.1-1.8,0.3
		c-1.8,0.7-3.2,1.5-4.4,2.3l-0.3,0.2c-1.7,1.1-3.5,2-5.3,2.9c-0.2-1.3-0.9-2.5-2-3.3c-0.9-0.6-1.9-1-3-1c-0.6,0-1.2,0.1-1.8,0.3
		c-1.8,0.7-3.2,1.5-4.4,2.3l-0.3,0.2c-2.3,1.4-4.7,2.6-7.2,3.8c0.3-2.1-0.7-4.2-2.7-5.2c-0.7-0.4-1.5-0.5-2.2-0.5
		c-0.2,0-0.3,0-0.5,0c9.3-3.5,18.8-6.1,28.4-7.7c8.3-1.4,16.8-2.1,25.2-2.1c1.2,0,2.3,0,3.5,0c3.5,0.1,6.6,0.2,9.5,0.5
		c0.1,0,0.3,0,0.4,0c2.3,0,4.3-1.6,4.9-3.8c0.6-2.4-0.6-4.8-2.9-5.8c-5.5-2.3-16.3-2.8-24.4-2.8c-14.6,0-30,1.5-40.4,4
		C239,36,219.6,45.5,203,59.2c-22.9,18.8-35.4,42.4-39.1,50.1c-0.4,0.5-0.8,1.1-1,1.8c-0.4,0.9-0.5,1.9-0.3,2.9
		c-0.9,1.6-1.7,3.4-2.4,5.3c-0.2,0.5-0.3,0.9-0.5,1.2l-6.5,15.8h-8.6c-1.9,0-3.6,1.1-4.5,2.7l-2.1,4.2c-0.8,1.5-0.7,3.4,0.2,4.9
		c0.9,1.5,2.5,2.4,4.3,2.4h4.9l-4.9,12.2c-0.3,0.4-1.3,1.4-3.8,3.7c-2.9,2.7-6.5,5.6-10.5,8.7c-0.3,0.2-0.5,0.4-0.7,0.7
		c-2.9,2.3-5.4,4.3-7.7,6l4.5-10.1c1.5-3.4,2.5-5.7,2.9-7c0.6-1.7,0.8-3.2,0.8-4.5c0-3.9-1.7-7.1-4.7-9c-2.2-1.4-5.1-2.1-9.1-2.2
		c-0.3-1.6-1.1-3.1-2.3-4.3c-1.7-1.8-3.9-2.7-6.4-2.7c-2.8,0-5.4,1.2-7.2,3.4c-1.6,2-2.4,4.4-2.4,7.3c0,1.9,0.4,3.6,1.2,5
		c0.1,0.1,0.1,0.2,0.2,0.3c-1.6,3-3.5,5.8-5.6,8.4c-2.1,2.6-4.3,4.8-6.7,6.8c2.4-8.3,5.1-17.4,8.1-27.2c7.2-23.2,8.1-29.1,8.1-31.7
		c0-4.5-1.8-7.3-3.4-8.8c-2.2-2.1-5.2-3.2-8.8-3.2c-8.7,0-18.9,5.4-31,16.6c-10.8,10-21.6,23.4-32,39.8c-2,0.1-3.8,0.2-5.4,0.3
		c-2.4,0.2-4.6,0.4-6.7,0.8c-1.6,0.3-3,1.3-3.8,2.8l-2.4,5.1c-0.8,1.6-0.6,3.5,0.4,5c0.9,1.3,2.5,2.1,4.1,2.1c0.2,0,0.3,0,0.5,0
		c1.1-0.1,2.5-0.2,4.2-0.4c-2.2,4-4,7.6-5.4,10.8c-2.4,5.2-4.3,9.9-5.6,14c-0.5,1.5-0.2,3.2,0.7,4.5s2.4,2,4,2h6.9
		c2.2,0,4.2-1.5,4.8-3.7c1-3.4,2.7-7.8,5.1-13.1c2.1-4.6,4.7-9.6,7.7-15c7.3,0.6,13.4,2.1,18.2,4.5c4.7,2.4,8.2,5.6,10.6,9.9
		c-0.7,4.9-0.7,6.5-0.7,7.4c0,2.9,0.6,5.3,1.9,7.1c1.6,2.4,4.1,3.7,7.1,3.7c3,0,5.6-1.5,7.3-4.1c1.3-2,2-4.6,2-7.6
		c0-1-0.1-2.1-0.2-3.4c-0.1-0.9-0.3-1.8-0.4-2.9c0.1-0.5,0.3-1,0.4-1.5c0.1,0.2,0.3,0.4,0.5,0.7c4.8,21.7,27.2,41.3,64.2,56
		C185,259,236.3,267.4,291,267.4c1.8,0,3.6,0,5.4,0c41.3-0.4,80.7-5.6,114.6-14.9c-1.3,3.5-1.8,3.5-2.9,3.5c-0.7,0-1.4,0-2.2-0.1
		c-0.2,0-0.4,0-0.7,0c-1.2,0-2.4,0.4-3.3,1.2c-1.1,0.9-1.7,2.3-1.7,3.8v3.1c0,2.5,1.9,4.6,4.4,5c1.1,0.1,2.1,0.2,3.5,0.2
		c9,0,12.5-4.9,16-14.7l2.3-6.6c6.9-2.3,13.6-4.8,19.9-7.4c41.4-17.4,64.1-40.8,63.9-65.8C510.2,171.9,507.9,169.7,505.2,169.7z
		 M420.6,188.2c3.2-2,6.9-5,11.3-9.1c1.7-1.6,3.4-3.3,5.3-5.1c-0.3,2.1-0.7,4-1.2,5.8c-1.1,4.1-2.7,7.6-4.7,10.4
		c-2.3,0.2-3,0.3-3.2,0.3c-1,0-2.2-0.1-3.7-0.2c-2.5-0.3-3.4-0.3-3.9-0.3c-0.9,0-1.7,0.1-2.5,0.2
		C418.8,189.5,419.6,188.9,420.6,188.2z M385.8,174.2c1.8-3.2,4.1-5.9,6.6-8.1c-1.3,3.2-2,6.6-2,10.2c0,2.3,0.3,4.5,1,6.7
		c0.3,1,0.7,2,1.1,3c-1.7,1.8-3.2,3.1-4.5,4c-1.8,1.3-2.8,1.4-3.3,1.4c-0.2,0-0.6,0-1.3-1c-0.9-1.2-1.3-2.7-1.3-4.6
		C382.2,182.2,383.4,178.3,385.8,174.2z M187.6,167.3c3.7-3,6.3-4.2,7.9-4.6c-0.8,1.8-2.6,3.9-5.3,6c-2.6,2.1-5.3,3.5-8.2,4.2
		C183.7,170.8,185.6,168.9,187.6,167.3z M200.6,83.5C213.1,72.3,226.4,63,240.3,56c4.4-2.2,8.9-4.3,13.4-6.1c-1.1,0.6-1.9,1.4-2.5,2
		c-0.1,0.1-0.2,0.3-0.4,0.4c-3.4,3.2-7.5,6.2-12.4,9.3c-3.6,2.3-6.1,5.7-7.4,10.1c-0.6,1.9-0.5,3.9,0,6c0,0.1,0.1,0.1,0.1,0.2
		c-3.5,1.1-6.7,2.3-9.7,3.5c-1.2,0.5-2.4,1-3.6,1.5c-1.1,0.5-2.2,0.9-3.2,1.3c-3.9,1.6-8.1,3.4-13.1,5.9c-5.8,2.8-11.2,5.8-16.2,8.9
		C190.1,93.5,195.3,88.3,200.6,83.5z M400.7,227.1c0.4,0,0.7-0.1,1-0.2l5.9,16.1c-4.3,1.2-8.7,2.3-13.2,3.3v-11.8
		C394.5,231.3,395.6,227.5,400.7,227.1z M354.8,253.2c0.1,0.1,0.2,0.1,0.2,0.2c-0.1,0-0.3,0-0.4,0
		C354.7,253.3,354.8,253.3,354.8,253.2z M381.3,249.1c-0.4,0.1-0.7,0.1-1.1,0.2c0.4-0.6,0.7-1.2,1.1-1.8V249.1z M365.8,226.7
		c1.3,0,2.3,0.5,3,1.1h-6.2C363.6,226.7,364.9,226.7,365.8,226.7z M370.2,240.6c0,0.1-0.1,0.1-0.1,0.2c-0.8,1.8-1.5,2.9-4.5,2.9
		c-2.3,0-3.6-1.4-4.3-3.1H370.2z M348.5,226.8c-0.8,2.6-1.3,5.5-1.3,8.6c0,1.1,0.1,2.1,0.2,3.1l-4.5-6.1L348.5,226.8z M306.2,195.1
		c-0.5,1.4-0.6,2.2-0.6,2.9c0,2.1,0.6,4,1.7,5.5c1.4,1.9,3.5,2.9,5.9,2.9c3.1,0,5.8-1.8,7.9-3.9c-0.3,0.6-0.5,1.3-0.5,2.1v45.5
		c0,0,0-0.1,0-0.1c-0.1-0.7-0.4-2.5-0.4-5v-16.3c0-9.5-5.9-14.9-16.2-14.9c-10.8,0-15.5,6.8-16.2,13.3c-0.2,1.4,0.3,2.8,1.2,3.9
		c0.4,0.5,0.9,0.8,1.4,1.1c-0.4,0.4-0.8,0.8-1.1,1.2c-0.8-2.5-2.1-4.6-3.8-6.3c1.9-2.5,2.9-5.7,2.9-9.2c0-4.5-1.6-8.2-4.5-11
		c0.3,0,0.5,0,0.8,0C287.6,206.8,291.6,205.8,306.2,195.1z M306.1,239.9h0.9c-0.6,3.7-2.2,3.9-5,3.9c-2.2,0-2.2-1.1-2.2-1.7
		C299.8,241.3,299.8,239.9,306.1,239.9z M301.4,227.5c0.4-0.8,0.9-0.9,2.7-0.9c1.6,0,2.4,0.2,2.8,0.6h-0.6
		C304.5,227.2,302.9,227.3,301.4,227.5z M263.7,215h7.2c4.2,0,4.2,2.1,4.2,2.9c0,1.6,0,2.9-5.5,2.9h-5.9V215z M263.7,234h5.6
		c7.4,0,7.4,2.9,7.4,4.4c0,1.2,0,4.4-5.6,4.4h-7.4V234z M268,180.3c0.9-2.2,2.3-4.4,4.1-6.4c2.9-3.3,6.7-6.1,11.3-8.3
		c3.2-1.5,6.3-2.5,9.2-3c-8,11.7-14,19.6-17.6,23.5c-4.5,4.8-6.3,4.9-6.4,5c-0.5,0-0.7-0.1-1.1-0.6c-0.6-0.9-1-2.3-1-4.2
		C266.7,184.4,267.1,182.4,268,180.3z M278.9,203.4c-0.3-0.1-0.6-0.2-0.9-0.3c0.2-0.1,0.3-0.2,0.5-0.3
		C278.6,202.9,278.7,203.1,278.9,203.4z M214.2,187.9c3.1-2,6.6-4.9,10.7-8.7c1.7-1.6,3.4-3.3,5.3-5.1c-0.3,2.1-0.7,4-1.2,5.8
		c-1.1,4.1-2.7,7.6-4.7,10.4c-2.3,0.2-3,0.3-3.2,0.3c-1,0-2.2-0.1-3.7-0.2c-2.5-0.3-3.4-0.3-3.9-0.3c-0.7,0-1.4,0-2,0.1
		C212.3,189.3,213.2,188.6,214.2,187.9z M102,176c3.2-3.7,6-7.9,8.5-12.3c0.2,0,0.5,0,0.7,0.1c-0.5,1.1-0.9,2-1.2,2.7l-11.2,24.9
		c-0.6,1.3-1,2.4-1.3,3.4c-0.4,1.1-0.6,2.1-0.6,3c-2.5-3.9-4.3-7.8-5.3-11.7C95.4,182.9,98.9,179.6,102,176z M77,145.2
		c-3,9.6-5.7,18.1-7.9,25.3c-2.6-2.3-5.6-4.3-9-5.9c-4.4-2.1-9.8-3.7-16-4.8c8.1-11.6,16.2-21.4,24.4-29.2
		c8.9-8.6,14-11.5,16.6-12.4C84.2,121.4,82.2,128.7,77,145.2z M296.3,257.4c-55.3,0.6-107.5-7.7-146.7-23.2
		c-19.8-7.9-35.2-17.2-45.2-27.4c0,0,0,0,0,0c2.9,0,7.5-1.2,26.3-15.6c-0.8,2.3-1.2,4.2-1.2,5.7c0,3.6,1.4,5.8,2.7,7
		c1.7,1.7,4.1,2.5,7,2.5c3.2,0,8.2-1.5,22.6-11.7c0.8,2.4,2,4.5,3.6,6.2c3.3,3.6,7.9,5.5,13.7,5.5c4.5,0,9.4-1.3,14.5-4
		c3-1.6,6.9-4.2,12-7.9c-0.2,0.6-0.3,1.2-0.3,1.9c0,1.8,0.7,5.2,5.1,7.8c2.5,1.5,5.4,2.2,8.6,2.2c1.7,0,3.6-0.3,5.6-0.9
		c1.6-0.5,3.6-1.3,5.9-2.3c4.1-0.4,8.3-1.6,12.5-3.6c2.5-1.2,5.7-3.2,9.5-5.8c0.7,2.5,1.7,4.6,3.2,6.6c0.4,0.6,0.9,1.1,1.4,1.7h-1.6
		c-2.8,0-5,2.2-5,5v44c0,2.8,2.2,5,5,5H271c7.5,0,13.4-3,16.6-8.1c2,4.8,6.6,8.8,14.3,8.8c3.3,0,5.9-0.7,8-1.7
		c0.8,0.6,1.8,0.9,2.9,0.9h3c1.5,0,2.9-0.7,3.8-1.8c0.7-0.8,1-1.7,1.1-2.7c0.2,2.5,2.3,4.6,5,4.6h3.1c2.8,0,5-2.2,5-5v-8.7l8.6,11.7
		c0.2,0.3,0.5,0.6,0.8,0.9C328.1,256.3,312.3,257.2,296.3,257.4z"/>
	<g>
		<path class="st1" d="M75.7,188.2c3.2-12.3,7.5-26.9,12.7-43.8c5.2-16.9,7.9-27,7.9-30.2c0-2.2-0.6-4-1.8-5.2
			c-1.2-1.2-3-1.8-5.4-1.8c-7.4,0-16.5,5.1-27.6,15.3c-11,10.2-21.9,23.9-32.6,41c-3,0.1-5.6,0.2-7.9,0.4c-2.3,0.2-4.4,0.4-6.3,0.7
			l-2.4,5.1c1.9-0.2,4.4-0.4,7.6-0.7s5.2-0.4,5.9-0.5c-4.2,7.4-7.4,13.7-9.8,18.7c-2.4,5-4.1,9.4-5.4,13.3h6.9
			c1-3.7,2.8-8.3,5.4-13.8c2.5-5.5,5.7-11.5,9.4-18c9.4,0.4,17.2,2.1,23.3,5.2c6.1,3.1,10.6,7.6,13.5,13.4l-0.1,0.5
			c-0.6,4.1-0.8,6.7-0.8,7.8c0,1.9,0.3,3.3,1,4.3c0.7,1,1.7,1.5,2.9,1.5c1.3,0,2.3-0.6,3.1-1.8c0.8-1.2,1.2-2.9,1.2-4.9
			c0-0.8-0.1-1.7-0.2-2.8C76.2,190.8,76,189.6,75.7,188.2z M71.2,180.7c-3.1-5-7.5-8.8-13.3-11.6c-5.7-2.7-13.2-4.6-22.5-5.4
			c9.8-14.9,19.6-27.1,29.6-36.7c9.9-9.5,17.3-14.3,22-14.3c1.2,0,2,0.3,2.6,0.8c0.6,0.5,0.8,1.4,0.8,2.6c0,2-2.9,12.2-8.7,30.6
			C77.4,160.4,73.9,171.8,71.2,180.7z"/>
		<path class="st1" d="M449.1,189.8c-3.4,2.1-6.3,3.5-8.8,4.1c2.3-2.3,4.2-6.6,5.6-12.9c1.5-6.3,2.2-13.4,2.2-21.4v-4.9
			c2.1-2,3.8-3.9,4.9-5.7c1.2-1.8,1.8-3.4,1.8-4.7c0-1-0.3-1.8-1-2.5c-0.6-0.7-1.4-1-2.3-1c-1.6,0-2.9,0.8-4,2.5
			c-1.1,1.7-2,4.3-2.8,8c-3.9,5.2-8.1,10.1-12.7,14.8c-4.6,4.7-9.5,9-14.7,12.9v0.1c-2.8,2.1-5,3.6-6.7,4.4
			c-2.1,1.1-3.9,1.7-5.4,1.7h-0.3c2.3-3.4,4.2-6.9,5.5-10.4c1.3-3.5,2-6.6,2-9.1c0-2.2-0.5-4-1.6-5.4c-1.1-1.4-2.4-2.1-4-2.1
			c-2.6,0-5.2,1.9-7.8,5.7c-2.6,3.8-3.9,7.9-3.9,12.5c0,1.8,0.3,3.5,0.8,5.2c0.5,1.7,1.3,3.4,2.4,5.2c-2.9,3.3-5.4,5.8-7.6,7.4
			c-2.2,1.6-4.3,2.4-6.2,2.4c-2.1,0-3.9-1-5.4-3.1c-1.5-2.1-2.2-4.6-2.2-7.6c0-4.5,1.4-9.2,4.2-14.1c2.8-4.9,6.4-8.8,10.8-11.7
			c1.8-1.2,4-2.3,6.7-3.5c2.7-1.2,4-2.3,4-3.4c0-0.6-0.2-1.1-0.5-1.5c-0.3-0.4-0.8-0.6-1.3-0.6c-1.2,0-3.2,0.6-5.8,1.7
			c-2.7,1.1-5.2,2.5-7.5,4.2c-5.1,3.7-9.1,8.1-11.9,13.2c-1.5,2.8-2.7,5.6-3.4,8.4c-5.9,4.7-10.8,8.4-14.6,11.2
			c-4.1,2.9-6.5,4.4-7.2,4.4c-0.2,0-0.4-0.2-0.6-0.4c-0.2-0.2-0.2-0.5-0.2-0.8c0-0.1,0.1-0.3,0.2-0.6c0.1-0.3,0.3-0.8,0.6-1.5
			l13.7-29.7c0.6-1.5,1.1-2.6,1.3-3.3c0.2-0.7,0.3-1.3,0.3-1.9c0-1.1-0.2-1.9-0.5-2.5c-0.3-0.6-0.8-0.8-1.5-0.8
			c-2.6,0-7.2,2.7-13.7,8c-6.6,5.3-16.1,14.3-28.8,26.8l15.9-33.5h-5.7l-5.8,11.9c-0.6,1.2-2.2,3.1-4.8,5.7c-2.6,2.6-5.6,5.1-9,7.6
			v0.2c-5.5,4.4-10.1,7.9-13.8,10.5c-4.1,2.9-6.5,4.4-7.2,4.4c-0.2,0-0.4-0.1-0.6-0.4c-0.2-0.3-0.3-0.5-0.3-0.8
			c0-0.2,0.1-0.5,0.2-0.8s0.3-0.8,0.5-1.2l12.5-26.9l-5.2-0.5c-9,13.1-15.5,21.8-19.5,26.2c-4,4.4-7.4,6.6-10,6.6
			c-2.1,0-3.8-0.9-5.1-2.6c-1.3-1.8-1.9-4.1-1.9-7.2c0-2.6,0.6-5.2,1.7-7.9c1.1-2.7,2.8-5.3,4.9-7.8c3.3-3.8,7.7-7,13-9.5
			c5.3-2.5,10.4-3.8,15.2-3.8c2,0,3.9,0.3,5.7,0.8c1.8,0.6,3.6,1.4,5.4,2.7l0.3-5.1c-1.7-1-3.4-1.8-5.2-2.2
			c-1.8-0.5-3.8-0.7-6.1-0.7c-5.5,0-11.3,1.4-17.2,4.2c-5.9,2.8-11.1,6.6-15.4,11.3c-2.6,2.9-4.5,5.8-5.7,8.7
			c-0.1,0.3-0.2,0.5-0.3,0.8c-7.3,5.9-12.6,9.8-16,11.9c-3.4,2.1-6.3,3.5-8.8,4.1c2.3-2.3,4.2-6.6,5.6-12.9
			c1.5-6.3,2.2-13.4,2.2-21.4v-4.9c2.1-2,3.8-3.9,4.9-5.7c1.2-1.8,1.8-3.4,1.8-4.7c0-1-0.3-1.8-1-2.5c-0.6-0.7-1.4-1-2.3-1
			c-1.6,0-2.9,0.8-4,2.5c-1.1,1.7-2,4.3-2.8,8c-3.9,5.2-8.1,10.1-12.7,14.8c-4.6,4.7-9.5,9-14.7,12.9v0.1
			c-9.3,7.3-15.8,12-19.7,14.1c-4.1,2.2-7.8,3.3-11,3.3c-2.9,0-5-0.8-6.5-2.5c-1.5-1.6-2.2-4.1-2.2-7.3c0-0.6,0-1.3,0.1-1.9
			c0.1-0.6,0.2-1.3,0.5-1.9c0.4,0,0.9,0.1,1.3,0.1c0.5,0,1.2,0,2.1,0c8.7,0,16-2.3,22.2-7c6.1-4.7,9.2-10,9.2-16
			c0-2.3-0.7-4.1-2.2-5.4c-1.5-1.3-3.6-1.9-6.3-1.9c-3.2,0-6.7,1-10.5,3.1c-3.9,2.1-7.7,5-11.5,8.8c-3.4,3.4-6,7-7.8,10.6
			c-0.7,1.4-1.2,2.9-1.6,4.3c-1.1,0.8-2.3,1.7-3.6,2.8c-11.3,8.6-17.7,12.8-19.1,12.8c-0.7,0-1.3-0.2-1.6-0.5
			c-0.3-0.3-0.5-0.9-0.5-1.6c0-0.7,0.5-2.2,1.4-4.3c0.3-0.7,0.5-1.2,0.6-1.6l17.2-41.9h9.8l1.6-4.2h-9.7l7.9-18.6
			c0.8-1.8,1.4-3.3,1.8-4.5c0.4-1.2,0.6-2.1,0.6-2.8c0-0.6-0.2-1.1-0.6-1.5c-0.4-0.4-1-0.6-1.8-0.6c-1.6,0-3.4,2.6-5.4,7.9
			c-0.2,0.6-0.4,1-0.5,1.3l-7.7,18.9h-11.9l-2.1,4.2H155l-7.9,19.5c-0.2,0.6-1.8,2.3-4.9,5.1s-6.7,5.8-10.8,9v0.1
			c-5.7,4.5-10.3,8-13.9,10.6c-4,2.9-6.3,4.3-7,4.3c-0.2,0-0.4-0.2-0.6-0.4c-0.2-0.2-0.2-0.5-0.2-0.8c0-0.1,0.1-0.4,0.2-0.8
			c0.1-0.4,0.3-0.9,0.5-1.3l9.5-21.1c1.4-3.2,2.3-5.4,2.7-6.6s0.6-2.1,0.6-2.9c0-2.2-0.8-3.8-2.3-4.8c-1.6-1-4.2-1.5-7.8-1.5
			c-0.1,0-0.3,0-0.6,0.1c-1.1,0-2.2,0.1-3.3,0.1c0.2-0.5,0.3-1,0.4-1.5c0.1-0.5,0.1-1,0.1-1.6c0-1.2-0.4-2.1-1.1-2.9
			c-0.7-0.8-1.7-1.2-2.8-1.2c-1.3,0-2.4,0.5-3.3,1.6c-0.9,1.1-1.3,2.4-1.3,4.1c0,1,0.2,1.9,0.6,2.6c0.4,0.7,1,1.3,1.8,1.8
			c-2.1,4.5-4.7,8.7-7.8,12.5c-3.1,3.8-6.5,7-10.2,9.6v5.3c4.8-3.4,9-7.3,12.6-11.5c3.7-4.3,6.8-9.1,9.4-14.3
			c1.1,0.1,2.6,0.3,4.5,0.4c3.7,0.3,5.6,1,5.6,2.1c0,0.5-0.6,1.9-1.8,4.4c-0.6,1.3-1.1,2.3-1.4,3.1l-11.2,24.9
			c-0.5,1.1-0.8,2-1.1,2.9c-0.3,0.8-0.4,1.5-0.4,1.9c0,1.1,0.2,2,0.7,2.7c0.5,0.7,1.1,1,1.8,1c3,0,11.6-5.5,25.9-16.6l1.6-1.2
			c1.5-0.9,3.1-2.1,4.8-3.4c1.9-1.5,3.9-3.3,6.2-5.4l-5.6,13.3c-0.2,0.5-0.5,1.3-1,2.3c-1.2,2.8-1.8,4.9-1.8,6.2
			c0,1.5,0.4,2.6,1.1,3.4c0.8,0.7,1.9,1.1,3.5,1.1c3.6,0,12.4-5.2,26.4-15.6c0,0.3,0,0.5,0,0.8c0,4.8,1.2,8.4,3.5,11
			c2.4,2.6,5.7,3.9,10,3.9c3.7,0,7.8-1.1,12.1-3.4c4.2-2.2,10.9-6.9,20-14.2c2.8-1.8,6.2-4.6,10.2-8.3c4.3-4,9.2-9.1,14.7-15.1
			c0,8.2-0.8,15.1-2.3,20.7c-1.5,5.6-3.8,10.2-6.9,13.8c-0.3,0-0.7,0.1-1.2,0.1c-2.3,0.3-3.8,0.4-4.6,0.4c-1.1,0-2.5-0.1-4.2-0.3
			c-1.7-0.2-2.8-0.3-3.4-0.3c-1.1,0-1.9,0.1-2.4,0.4c-0.5,0.2-0.7,0.6-0.7,1.1c0,1.3,0.9,2.5,2.6,3.5c1.7,1,3.7,1.5,6,1.5
			c1.2,0,2.6-0.2,4.2-0.7c1.6-0.5,3.6-1.3,6.1-2.5c3.8-0.2,7.6-1.3,11.6-3.2c3.7-1.8,9-5.3,15.9-10.6c-0.1,0.7-0.1,1.3-0.1,2
			c0,4.5,1,8.1,3.1,10.8c2.1,2.8,4.8,4.2,8,4.2c3.2,0,6.3-1.4,9.6-4.1c3.2-2.7,7-7.3,11.3-13.7l-4.3,9.7c-0.6,1.3-1,2.4-1.3,3.4
			c-0.3,1-0.5,1.6-0.5,2.1c0,0.9,0.3,1.6,0.8,2.2c0.5,0.6,1.1,0.9,1.8,0.9c3,0,12.2-5.9,27.4-17.7l0.3-0.2c1.1-0.7,2.3-1.5,3.6-2.5
			c1.5-1.1,3-2.5,4.7-4c-1.1,2-2.6,4.7-4.4,8c-3.9,7.1-5.9,11.3-5.9,12.5c0,1,0.2,1.9,0.7,2.5c0.5,0.6,1.1,0.9,1.9,0.9
			c1.9,0,4.2-1.8,6.9-5.3c0.8-1,1.4-1.7,1.8-2.2c2.9-3.4,6.1-7,9.8-10.8c3.7-3.8,7.6-7.5,11.8-11.2c3.4-3.1,6.5-5.7,9.2-7.7
			c2.7-2,4.3-3.1,4.9-3.1c0.2,0,0.3,0.1,0.4,0.3c0.1,0.2,0.1,0.5,0.1,0.9c0,0.2-0.1,0.5-0.3,0.8c-0.2,0.4-0.6,1.3-1.4,2.8l-13,27.3
			c-0.5,1-0.9,2-1.2,2.8c-0.3,0.8-0.4,1.4-0.4,1.9c0,1.1,0.3,2,0.8,2.8c0.5,0.7,1.1,1.1,1.9,1.1c3,0,11.6-5.5,25.9-16.6l1-0.8
			c0,0.5,0,1,0,1.5c0,4.8,1.1,8.5,3.3,11.3c2.2,2.8,5.1,4.2,8.8,4.2c2.8,0,5.7-1,8.7-2.9c3-1.9,6.2-4.9,9.6-8.8
			c0.2,0,0.5,0.1,0.8,0.1c1,0.1,1.6,0.1,1.9,0.1c1.9,0,4.1-0.6,6.4-1.7c1.8-0.9,4-2.3,6.5-4.2c2.9-1.8,6.5-4.7,10.7-8.6
			c4.3-4,9.2-9.1,14.7-15.1c0,8.2-0.8,15.1-2.3,20.7c-1.5,5.6-3.8,10.2-6.9,13.8c-0.3,0-0.7,0.1-1.2,0.1c-2.3,0.3-3.8,0.4-4.6,0.4
			c-1.1,0-2.5-0.1-4.2-0.3c-1.7-0.2-2.8-0.3-3.4-0.3c-1.1,0-1.9,0.1-2.4,0.4c-0.5,0.2-0.7,0.6-0.7,1.1c0,1.3,0.9,2.5,2.6,3.5
			c1.7,1,3.7,1.5,6,1.5c1.2,0,2.6-0.2,4.2-0.7c1.6-0.5,3.6-1.3,6.1-2.5c3.8-0.2,7.6-1.3,11.6-3.2c4-1.9,9.8-5.9,17.6-11.9v-5.4
			C457.8,183.6,452.4,187.7,449.1,189.8z M184.4,163.4c4.9-4,9-6,12.5-6c1.2,0,2.2,0.3,2.9,0.9c0.7,0.6,1.1,1.4,1.1,2.5
			c0,3.9-2.5,7.8-7.6,11.8c-5.1,4-10.6,6-16.6,6c-0.7,0-1.4,0-2.1-0.1c-0.7,0-1.4-0.1-2.1-0.2C175.6,172.3,179.6,167.4,184.4,163.4z
			 M401.8,182.3c-0.5-1.1-0.9-2.1-1.1-3.1c-0.2-1-0.3-2-0.4-3c0-2.9,0.6-5.7,1.9-8.3c1.3-2.6,2.5-3.9,3.7-3.9c0.5,0,1,0.3,1.4,0.8
			c0.4,0.5,0.6,1.1,0.6,1.8c0,1.5-0.5,3.6-1.6,6.4C405.3,175.6,403.8,178.7,401.8,182.3z"/>
		<g>
			<g>
				<path class="st2" d="M503.5,186c-6,19.2-27.5,36.5-59.1,49.8c-37.8,15.9-90.1,26-148,26.6c-57.9,0.6-110.4-8.5-148.6-23.6
					c-38.1-15.1-61.8-36.3-62-59.9"/>
				<g>
					<g>
						<path class="st0" d="M492.7,184.9c0.9-5.8,6.4-9.8,12.2-8.8c5.8,0.9,9.8,6.4,8.8,12.2c-0.9,5.8-6.4,9.8-12.2,8.8
							C495.7,196.2,491.8,190.7,492.7,184.9z"/>
						<path class="st1" d="M491.3,184.7c-1.1,6.6,3.4,12.8,10,13.9c6.6,1.1,12.8-3.4,13.9-10c1.1-6.6-3.4-12.8-10-13.9
							C498.6,173.6,492.4,178.1,491.3,184.7C490.3,191.2,492.4,178.1,491.3,184.7z M512.4,188.1c-0.8,5-5.6,8.5-10.6,7.6
							c-5-0.8-8.5-5.6-7.6-10.6c0.8-5,5.6-8.5,10.6-7.6C509.8,178.3,513.2,183.1,512.4,188.1C511.6,193.1,513.2,183.1,512.4,188.1z"
							/>
					</g>
				</g>
			</g>
		</g>
	</g>
	<g>
		<path d="M255.4,206.9h15.3c8.4,0,12.9,4.5,12.9,10.8c0,5.2-3.1,8.6-6.8,9.6c3.1,0.9,8.4,4,8.4,10.9c0,8.8-6.6,12.7-14.3,12.7
			h-15.6V206.9z M269.6,225.8c7.6,0,10.5-2.8,10.5-7.9c0-4.3-3-7.9-9.2-7.9h-12.2v15.8H269.6z M258.7,247.8h12.4
			c5.8,0,10.6-2.9,10.6-9.4c0-5.6-3.6-9.4-12.4-9.4h-10.6V247.8z"/>
		<path d="M315.4,244.9c0,2.8,0.3,5,0.4,6h-3c-0.3-0.8-0.4-2.1-0.6-4.8c-1.1,2.3-3.8,5.6-10.3,5.6c-7.3,0-10.4-4.7-10.4-9.4
			c0-6.9,5.3-10.1,14.8-10.1c2.6,0,4.7,0,6,0V229c0-3.1-0.9-7.4-8.1-7.4c-6.3,0-7.3,3.3-8,5.9H293c0.4-3.5,2.5-8.8,11.2-8.8
			c7.2,0,11.2,3,11.2,9.9V244.9z M312.3,234.9c-1.2,0-4.1,0-6.2,0c-7,0-11.3,1.8-11.3,7.2c0,4,2.8,6.7,7.2,6.7c9,0,10.2-6,10.2-12.8
			V234.9z"/>
		<path d="M328.9,235.7c2.9-3.1,11.7-12,15.9-16.2h4L336.4,232l14,18.9h-3.9L334.1,234l-5.2,5v11.9h-3.1v-46.3h3.1V235.7z"/>
		<path d="M355.5,235.6c0.1,8.1,4.1,13.1,10.2,13.1c5.9,0,7.9-3.3,9-5.9h3.2c-1.3,4.1-4.7,8.9-12.4,8.9c-9.6,0-13.3-8.2-13.3-16.2
			c0-9,4.5-16.7,13.6-16.7c9.7,0,12.8,8.4,12.8,14.3c0,0.9,0,1.8-0.1,2.6H355.5z M375.4,232.8c-0.1-6.2-3.5-11.1-9.6-11.1
			c-6.5,0-9.4,4.5-10.1,11.1H375.4z"/>
		<path d="M386.3,228c0-5.3-0.1-7.5-0.1-8.5h3.1c0.1,1,0.1,3,0.1,7c1.8-4.7,5.8-7.5,10.9-7.8v3.4c-6.5,0.4-10.9,5-10.9,12.4v16.3
			h-3.1V228z"/>
		<path d="M407.8,219.5c6.3,18,9.1,25.4,10.2,28.8h0.1c1.3-3.8,3.8-11.1,9.9-28.8h3.3l-11.8,33.2c-3.3,9.3-5.6,11.4-11.3,11.4
			c-1.1,0-1.9-0.1-2.9-0.2v-3.1c0.9,0.1,1.8,0.2,2.8,0.2c4.5,0,6-2.2,8.3-8.7l-12-32.8H407.8z"/>
	</g>
	<g>
		<path class="st3" d="M323.6,34.3c-3.2-0.3-6.5-0.4-9.7-0.5c-9.9-0.2-19.8,0.5-29.6,2.2c-16.2,2.8-31.6,8-46.3,15.5
			c-14.8,7.6-28.3,17.1-40.7,28.3c-7.9,7.1-15.2,14.8-22,23c-2.4,3-4.7,6.1-7.1,9.1c6-12.9,19-33.3,38-48.9
			c16.4-13.5,35.1-22.4,55.7-27.3C280.5,31.4,314.7,30.6,323.6,34.3z"/>
		<path class="st3" d="M356.9,91.2c-11.1-4.9-22.7-8.5-34.7-10.7c-11.5-2.1-23.1-3-34.8-2.6c-14.1,0.4-28,2.5-41.7,5.7
			c-8.3,2-16.6,4.4-24.7,7.2c-4.4,1.5-8.7,3.2-13,5c-8.5,3.7-17.1,7.4-25.3,11.8c-1.4,0.8-2.9,1.5-4.3,2.2c0.1-0.4,0.4-0.7,0.6-0.8
			c7.8-5.5,16.1-10.2,24.7-14.4c4.2-2,8.4-4,12.7-5.7c2.3-0.9,4.6-1.9,6.8-2.8c4.2-1.6,8.4-3.1,12.7-4.4c9.5-3,19.1-5.3,28.9-6.8
			c13.1-2,26.2-2.7,39.4-1.6c9.3,0.7,18.5,2.4,27.6,4.8c10.5,2.9,20.4,7,30,12.2c9.2,5,17.8,11.1,25.7,18c0.4,0.4,1,0.6,1.2,1.5
			c-3.5-2.4-6.8-4.7-10.2-6.8C371.6,98.4,364.4,94.6,356.9,91.2z"/>
		<path class="st3" d="M258.3,112.6c9.7,3.5,18.8,8.3,27.2,14.2c2.7,1.9,5.5,3.8,7.8,6.3c0,0-0.1,0.1-0.1,0.1
			c-0.6-0.4-1.2-0.7-1.8-1.1c-9.9-6.7-20.6-11.9-32.2-15.3c-13.3-3.8-26.8-5.3-40.6-4.6c-13.9,0.7-27.5,3.3-40.7,7.9
			c-2.2,0.8-4.2,1.8-6.5,2.2l0,0c-0.2,0.6-0.8,0.5-1.3,0.6c0.4-0.3,0.8-0.6,1.3-0.6c0,0,0,0,0,0l0,0c4.9-3.2,10.1-5.6,15.5-7.9
			c14.1-5.9,28.7-8.6,43.9-7.7C240.3,107.5,249.4,109.4,258.3,112.6z"/>
		<path class="st3" d="M339.8,78.2c-1.6-0.2-3.1-0.7-3.7-2.4c-0.6-1.6,0.1-2.9,1.1-4c2.5-2.9,5.8-4,9.6-4c4.3,0,8.6,0.1,12.9-0.4
			c2.1-0.2,4.3-0.4,6.5-0.6c0,0.1,0,0.2,0,0.3c-0.3,0.1-0.5,0.2-0.8,0.3c-5.8,1.8-11.2,4.4-16,8.2C346.6,77.8,343.3,78.5,339.8,78.2
			z"/>
		<path class="st3" d="M292.4,51.4c0,0.9-0.5,1.1-0.9,1.5c-3,2.8-5.7,5.8-7.8,9.3c-1.2,2-2.1,4.2-3.8,6c-1.9,2-4.1,3.5-6.8,4
			c-3,0.5-4.7-1.2-4.2-4.1c0.7-3.8,3.1-6.3,6.5-7.9c4.5-2.1,9.1-4,13.3-6.6C289.8,52.7,291,51.9,292.4,51.4z"/>
		<path class="st3" d="M275.7,52.8c0,0.9-0.5,1.1-0.9,1.5c-3,2.8-5.7,5.8-7.8,9.3c-1.2,2-2.1,4.2-3.8,6c-1.9,2-4.1,3.5-6.8,4
			c-3,0.5-4.7-1.2-4.2-4.1c0.7-3.8,3.1-6.3,6.5-7.9c4.5-2.1,9.1-4,13.3-6.6C273.1,54.1,274.3,53.3,275.7,52.8z"/>
		<path class="st3" d="M333.2,70.2c-2.6,2.6-6,3.9-9.8,3.8c-1.6,0-3.1-0.4-3.8-2c-0.6-1.6-0.1-3.1,0.9-4.4c2-2.6,4.7-4,7.9-4.4
			c4.8-0.6,9.6-1.1,14.4-2.1c1.6-0.4,3.3-0.9,5-0.9c0,0,0,0,0,0c0.1,0,0.3-0.1,0.4-0.1c0,0,0,0,0,0c0,0.2-0.1,0.3-0.3,0.3
			c-0.1,0.1-0.1,0.1-0.2,0.2C342.4,62.9,337.4,65.9,333.2,70.2z"/>
		<path class="st3" d="M317.6,65.2c-1.4,1.7-2.8,3.3-4.7,4.4c-2.3,1.3-4.7,2.4-7.5,2c-2-0.3-3-1.6-2.9-3.6c0.1-1,0.5-1.9,1.1-2.7
			c1.9-2.6,4.4-4.3,7.6-5c2.7-0.6,5.4-1.2,8.1-1.8c3.4-0.9,6.6-2.3,10-3c0,0.1,0.1,0.1,0.1,0.2c-0.4,0.7-1.1,0.9-1.7,1.2
			C324,59,320.5,61.8,317.6,65.2z"/>
		<path class="st3" d="M310.7,53.2c-4.9,3.4-8.8,7.6-12.1,12.5c-2,3-5.1,4.9-8.8,5.3c-3.1,0.4-4.9-1.7-3.9-4.7
			c1.3-3.9,4.2-6.1,7.9-7.3c4.1-1.3,8.1-2.7,12-4.5c1.9-0.9,3.7-1.9,5.7-2.4c0.1-0.3,0.3-0.3,0.6-0.2c-0.1,0.2-0.3,0.3-0.5,0.3
			C311.5,52.8,311,53,310.7,53.2z"/>
		<path class="st3" d="M368.7,90.8c-1.7-1.1-2-2.9-0.8-4.6c1.9-2.7,6.8-4.2,10.7-3.2c5.5,1.3,11.1,2.3,16.7,2.9
			c1,0.1,2.1,0.2,3.1,0.3c0,0.1,0,0.2,0,0.4c-6.4,0.5-12.5,2-18.4,4.8C376.3,93,372.4,93,368.7,90.8z"/>
		<path class="st3" d="M355.3,84c-3.4-0.8-4.4-3.6-2.1-6.2c0.4-0.4,0.8-0.8,1.3-1.1c2.6-1.7,5.4-2.4,8.5-2.1c4.1,0.4,8.2,1,12.4,1
			c2.3,0,4.5,0.1,6.9,0.1c-0.1,0.3-0.1,0.4-0.1,0.4c-0.2,0.1-0.4,0.1-0.5,0.2c-5.8,1.2-11.3,3.2-16.4,6.4
			C362.2,84.5,358.7,84.8,355.3,84z"/>
		<path class="st3" d="M382.6,94.8c1.5-1.5,3.4-2.1,5.5-2.4c3-0.4,5.8,0.5,8.5,1.5c5.3,1.9,10.8,2.8,16.2,4.2
			c-0.6,0-1.1,0.1-1.7,0.1c-3.8,0.1-7.5,0.3-11.2,1.2c-3,0.7-5.8,2.1-8.9,2.3c-3,0.2-5.9,0-8.3-2.3
			C381.2,98.1,381.1,96.4,382.6,94.8z"/>
		<path class="st3" d="M257.1,53.9C257.1,53.9,257.1,53.8,257.1,53.9L257.1,53.9C257.1,53.9,257.1,53.9,257.1,53.9z"/>
		<path class="st3" d="M243.5,76.5c-1.3,1.1-2.8,1.9-4.6,2c-1.4,0.1-2.7-0.8-3.1-2.2c-0.3-1.1-0.3-2.2,0-3.2
			c0.9-3.1,2.6-5.6,5.3-7.3c4.6-3,9-6.2,13.1-9.9c0.9-0.8,1.6-1.8,2.9-2.1c-3.7,4.7-7,9.6-8.7,15.3
			C247.5,72.2,245.8,74.6,243.5,76.5z"/>
		<path class="st3" d="M400.6,124.8c-2.3-1-4.5-2.2-6.1-4.2c-1.2-1.5-2.2-3.1-2.3-5.2c-0.1-1.7,0.5-2.8,2-3.2
			c1.2-0.3,2.5-0.4,3.7,0.1c2.9,1.2,5.2,3.1,6.6,5.9c2.4,4.7,4.8,9.3,7.9,13.5c0.3,0.5,1,0.9,0.6,1.8c-0.2-0.1-0.3-0.2-0.4-0.3
			C409,129.8,405.2,126.8,400.6,124.8z"/>
		<path class="st3" d="M248.4,96.8c-3.2-0.4-5.9-2.2-7.8-4.9c-1.8-2.7-0.6-5.4,2.7-5.7c3.6-0.3,6.7,1.1,9.1,3.7
			c3,3.2,5.9,6.4,9.3,9.1c0.9,0.7,1.9,1.2,2.5,2.3c-0.5,0.2-0.8,0-1.1-0.1C258.5,98.8,253.5,97.5,248.4,96.8z"/>
		<path class="st3" d="M349.5,103.8c-2.3-2.5-3.5-5.6-3.2-9.1c0.1-1.5,0.4-2.9,2-3.5c1.6-0.6,3,0,4.2,1c2.4,2.1,3.8,4.8,3.9,8
			c0.1,4.4,0.4,8.8,1,13.1c0.2,1.3,0.7,2.6,0.4,4c-0.1-0.2-0.3-0.4-0.4-0.6C355.6,112,353.1,107.6,349.5,103.8z"/>
		<path class="st3" d="M357.8,117.4C357.9,117.4,357.9,117.4,357.8,117.4L357.8,117.4C357.8,117.4,357.8,117.4,357.8,117.4z"/>
		<path class="st3" d="M342.7,94.8c0.4,3.7,1,7.3,2,10.8c0.4,1.6,1,3.2,1.2,5c-0.3-0.1-0.3-0.1-0.4-0.1c-0.2-0.3-0.4-0.6-0.6-1
			c-2.2-4.3-5.1-8-8.8-11.1c-2.4-2-3.8-4.8-4.2-7.9c-0.2-1.6-0.1-3.3,1.4-4.3c1.6-1,3.1-0.4,4.5,0.5
			C340.7,88.6,342.2,91.4,342.7,94.8z"/>
		<path class="st3" d="M373.3,116.2c-0.8-2.9-1.1-5.8,0.5-8.5c1-1.8,2.6-2,4.3-0.9c3.4,2.4,4.3,5.9,3.8,9.7
			c-0.7,4.7-1.5,9.4-1.5,14.2c0,1.2-0.1,2.4-0.2,3.7c-1-4.7-2.1-9.2-4.4-13.3C374.9,119.5,373.8,118,373.3,116.2z"/>
		<path class="st3" d="M273.7,80.4c3.6-0.1,6.5,1.5,8.6,4.4c2.3,3.1,4.1,6.5,6.6,9.6c1.3,1.6,2.8,2.9,3.7,4.7c0,0-0.1,0.1-0.1,0.1
			c-0.4,0-0.6-0.3-0.8-0.5c-2.1-1.5-4.2-3-6.5-4.2c-2.6-1.3-5.4-2-8-3.2c-3.1-1.4-5.6-3.5-6.5-7C270.1,82.1,271.5,80.5,273.7,80.4z"
			/>
		<path class="st3" d="M258.2,82.7c4-0.3,7.1,1.5,9.5,4.5c1.5,1.9,3,3.9,4.6,5.7c2,2.2,4.1,4.3,6.1,6.5c0,0,0,0,0,0
			c0.2,0.1,0.4,0.2,0.3,0.4c-0.2,0.2-0.4,0-0.5-0.2c-4.8-2.9-9.9-4.9-15.4-6.2c-3.3-0.7-5.8-2.9-7.3-6.1
			C254.3,85.1,255.6,83,258.2,82.7z"/>
		<path class="st3" d="M290.2,79.5c3.5,0.5,6,2.5,7.6,5.5c2.5,4.7,4.8,9.4,8,13.6c0.2,0.2,0.2,0.6,0.4,0.9c-0.1,0-0.1,0.1-0.2,0.1
			c-1.8-0.9-2.8-2.6-4.4-3.7c-2.8-1.8-5.6-3.4-8.7-4.7c-3.1-1.4-5.4-3.7-6.6-6.9C285.3,81.3,287,79.1,290.2,79.5z"/>
		<path class="st3" d="M369.3,124.9C369.3,124.9,369.3,124.9,369.3,124.9L369.3,124.9C369.3,124.9,369.3,124.9,369.3,124.9z"/>
		<path class="st3" d="M361.8,109.7c-1.9-2.7-2.4-5.8-1.6-9.1c0.7-2.7,3.1-3.6,5.3-2c0.5,0.4,1,0.8,1.4,1.3c1.9,2.4,2.8,5.2,2.5,8.3
			c-0.3,2.8-0.4,5.5-0.4,8.3c0,2.8,0.5,5.5,0.2,8.3c-0.2-0.3-0.4-0.6-0.5-1C367.6,118.7,364.9,114.1,361.8,109.7z"/>
		<path class="st3" d="M305.5,80c3.9,0.6,6.4,3.2,7.8,6.7c1.5,3.8,2.9,7.7,4.9,11.3c0.6,1.1,1.4,2.2,1.6,3.6l-0.1,0.1
			c-0.5-0.1-0.7-0.5-1-0.9c-2.7-3.1-5.7-5.8-9.3-7.9c-1.7-1-3.5-1.9-4.8-3.4c-1.5-1.8-2.8-3.7-2.8-6.2C301.6,80.8,303,79.6,305.5,80
			z"/>
		<path class="st3" d="M328.3,90.3c0.6,2.4,1.3,4.7,1.9,7.1c0.7,2.6,2,5,2.6,7.6c0,0,0,0,0,0c0.3,0.2,0.4,0.4,0.3,0.8l0,0
			c0,0,0.1,0.1,0.1,0.1c0,0-0.1,0-0.1,0.1c0,0,0-0.1,0-0.1c-0.4,0-0.5-0.3-0.6-0.6c-3-4.5-6.9-8.3-11.3-11.4
			c-2.5-1.8-3.9-4.5-4.3-7.5c-0.4-3.3,1.7-5,4.8-3.8C325.5,83.7,327.3,86.7,328.3,90.3z"/>
		<path class="st3" d="M294.3,133.9L294.3,133.9c0.1,0.1,0.3,0.1,0.1,0.2C294.4,134.1,294.3,134,294.3,133.9
			C294.3,134,294.3,134,294.3,133.9L294.3,133.9c-0.6,0.1-0.9-0.2-1.1-0.7c0,0,0.1-0.1,0.1-0.1C293.8,133.3,294.2,133.5,294.3,133.9
			z"/>
		<path class="st3" d="M320.1,102.1c0,0-0.1,0.1-0.1,0.1c-0.3,0-0.3-0.2-0.3-0.5c0,0,0.1-0.1,0.1-0.1
			C320,101.7,320.1,101.8,320.1,102.1z"/>
		<path class="st3" d="M369.3,125.5c0-0.2,0-0.3,0-0.5c0,0.1,0.1,0.3,0.1,0.4C369.4,125.4,369.3,125.4,369.3,125.5z"/>
		<path class="st3" d="M369.3,124.9C369.3,124.9,369.3,124.9,369.3,124.9C369.3,125,369.3,125,369.3,124.9
			C369.3,125,369.3,125,369.3,124.9z"/>
		<path class="st3" d="M382.7,75.6c0.2,0.1,0.3,0.1,0.4,0.2c-0.1,0.1-0.2,0.1-0.3,0.2c-0.1,0-0.2-0.1-0.2-0.1
			C382.6,75.8,382.7,75.7,382.7,75.6z"/>
		<path class="st3" d="M265.1,101.9c0.1,0.1,0.2,0.1,0.3,0.2c-0.1,0-0.2,0-0.3-0.1C265,102,265.1,102,265.1,101.9z"/>
		<path class="st3" d="M265.3,102.1C265.3,102.1,265.4,102.1,265.3,102.1L265.3,102.1l0.1,0.1C265.4,102.2,265.4,102.1,265.3,102.1
			C265.4,102.1,265.4,102.1,265.3,102.1C265.4,102.1,265.4,102.1,265.3,102.1C265.4,102.1,265.3,102.1,265.3,102.1z"/>
		<path class="st3" d="M167.9,112.6c-0.1,0.1-0.2,0.2-0.2,0.3c0-0.1,0.1-0.2,0.1-0.4C167.8,112.5,167.9,112.5,167.9,112.6z"/>
		<path class="st3" d="M167.7,112.8C167.7,112.8,167.7,112.9,167.7,112.8L167.7,112.8C167.6,112.9,167.7,112.9,167.7,112.8
			C167.7,112.9,167.7,112.9,167.7,112.8L167.7,112.8C167.7,112.8,167.7,112.8,167.7,112.8z"/>
		<path class="st3" d="M257.2,53.7c0,0.1-0.1,0.1-0.1,0.2c0,0,0,0,0,0C257.1,53.8,257.2,53.7,257.2,53.7z"/>
		<path class="st3" d="M348.7,60c-0.1,0-0.2,0.1-0.4,0.1c0,0,0,0,0,0c0.1-0.1,0.2-0.1,0.3-0.1C348.6,59.9,348.7,60,348.7,60z"/>
		<path class="st3" d="M357.9,117.4C357.9,117.4,357.9,117.4,357.9,117.4C357.9,117.4,357.9,117.4,357.9,117.4
			C357.8,117.4,357.9,117.4,357.9,117.4z"/>
		<path class="st3" d="M357.9,117.7c0-0.1,0-0.2-0.1-0.3C358,117.5,358.1,117.6,357.9,117.7z"/>
		<path class="st3" d="M329.9,55.3c0.1,0.3-0.2,0.2-0.4,0.3c0-0.1-0.1-0.1-0.1-0.2C329.5,55.2,329.8,55,329.9,55.3z"/>
		<path class="st3" d="M293.1,99.5C293.1,99.5,293.1,99.5,293.1,99.5C293.1,99.5,293.1,99.5,293.1,99.5L293.1,99.5z"/>
		<path class="st3" d="M293,99.5c-0.2,0-0.5,0-0.5-0.3c0,0,0.1-0.1,0.1-0.1C292.8,99.2,292.9,99.4,293,99.5z"/>
		<path class="st3" d="M264.4,101.7c0-0.1-0.1-0.1-0.1-0.2c0,0,0.1-0.1,0.1-0.1C264.5,101.5,264.5,101.6,264.4,101.7
			C264.5,101.7,264.4,101.7,264.4,101.7z"/>
		<path class="st3" d="M306.2,99.6c-0.1,0-0.1,0.1-0.2,0.1c0.1,0.1,0.2,0.2,0.3,0.3c0.1,0.1,0.1,0.1,0.2,0.2c0,0,0.1,0,0.1-0.1
			c-0.1-0.1-0.1-0.1-0.2-0.2l0,0C306.5,99.7,306.4,99.6,306.2,99.6z M306.4,99.9L306.4,99.9C306.4,99.9,306.4,99.9,306.4,99.9z"/>
		<path class="st3" d="M345.9,111C345.9,111.1,345.9,111.1,345.9,111c-0.1,0.1-0.1,0-0.2,0c0,0,0.1-0.1,0.1-0.1
			C345.9,111,345.9,111,345.9,111z"/>
		<path class="st3" d="M293.1,99.5C293.1,99.5,293.1,99.5,293.1,99.5C293.1,99.5,293.1,99.6,293.1,99.5
			C293.1,99.6,293.1,99.5,293.1,99.5z"/>
		<path class="st3" d="M293.1,99.7c0,0,0-0.1-0.1-0.1C293.1,99.6,293.1,99.6,293.1,99.7C293.2,99.6,293.1,99.7,293.1,99.7z"/>
		<path class="st3" d="M330.4,55C330.5,55,330.5,55.1,330.4,55c0.1,0.1,0,0.2,0,0.2C330.4,55.2,330.4,55.1,330.4,55
			C330.4,55.1,330.4,55,330.4,55z"/>
		<path class="st3" d="M312.1,52C312.1,52,312.1,52,312.1,52L312.1,52C312.1,52,312.1,52,312.1,52C312.1,52,312.1,52,312.1,52
			C312.1,52,312.1,52,312.1,52z"/>
		<path class="st3" d="M312.2,52C312.2,52,312.2,52,312.2,52C312.2,52,312.2,51.9,312.2,52C312.2,51.9,312.2,51.9,312.2,52z"/>
	</g>
</g>
</svg>
