<?xml version="1.0" encoding="utf-8"?>
<!-- Generator: Adobe Illustrator 26.0.2, SVG Export Plug-In . SVG Version: 6.00 Build 0)  -->
<svg version="1.1" id="Layer_1" xmlns="http://www.w3.org/2000/svg" xmlns:xlink="http://www.w3.org/1999/xlink" x="0px" y="0px"
	 viewBox="0 0 350 50" style="enable-background:new 0 0 350 50;" xml:space="preserve">
<style type="text/css">
	.st0{fill:#EF4445;}
	.st1{font-family:'Swiss721BT-Heavy';}
	.st2{font-size:34.85px;}
	.st3{fill:#231F20;}
	.st4{fill:#404040;}
</style>
<g>
	<text transform="matrix(1 0 0 1 68.219 37.55)" class="st0 st1 st2">YOUR</text>
	<text transform="matrix(1 0 0 1 169.829 37.55)" class="st3 st1 st2"> </text>
	<text transform="matrix(1 0 0 1 180.109 37.55)" class="st4 st1 st2">company</text>
	<path d="M34,2.3C21.4,2.3,11.3,12.5,11.3,25S21.5,47.7,34,47.7s22.6-10.1,22.6-22.6C56.6,12.4,46.5,2.3,34,2.3L34,2.3z M42.6,37.8
		L34,31.5l-8.7,6.3l3.3-10.2L20,21.3h10.7L34,11.2l3.3,10.1H48l-8.7,6.2L42.6,37.8z"/>
</g>
</svg>
