<?xml version="1.0" encoding="utf-8"?>
<!-- Generator: Adobe Illustrator 26.0.2, SVG Export Plug-In . SVG Version: 6.00 Build 0)  -->
<svg version="1.1" id="Layer_1" xmlns="http://www.w3.org/2000/svg" xmlns:xlink="http://www.w3.org/1999/xlink" x="0px" y="0px"
	 viewBox="0 0 525 173" style="enable-background:new 0 0 525 173;" xml:space="preserve">
<style type="text/css">
	.st0{fill:#F7B239;}
	.st1{fill:none;stroke:#F7B239;stroke-width:2.8346;stroke-miterlimit:10;}
	.st2{fill:#FFFFFF;}
</style>
<g>
	<g>
		<path class="st0" d="M75.7,87.2c3.2-12.3,7.5-26.9,12.7-43.8s7.9-27,7.9-30.2c0-2.2-0.6-4-1.8-5.2c-1.2-1.2-3-1.8-5.4-1.8
			c-7.4,0-16.5,5.1-27.6,15.3c-11,10.2-21.9,23.9-32.6,41c-3,0.1-5.6,0.2-7.9,0.4s-4.4,0.4-6.3,0.7l-2.4,5.1
			c1.9-0.2,4.4-0.4,7.6-0.7s5.2-0.4,5.9-0.5c-4.2,7.4-7.4,13.7-9.8,18.7s-4.1,9.4-5.4,13.3h6.9c1-3.7,2.8-8.3,5.4-13.8
			c2.5-5.5,5.7-11.5,9.4-18c9.4,0.4,17.2,2.1,23.3,5.2c6.1,3.1,10.6,7.6,13.5,13.4L69,86.8c-0.6,4.1-0.8,6.7-0.8,7.8
			c0,1.9,0.3,3.3,1,4.3s1.7,1.5,2.9,1.5c1.3,0,2.3-0.6,3.1-1.8c0.8-1.2,1.2-2.9,1.2-4.9c0-0.8-0.1-1.7-0.2-2.8
			C76.2,89.8,76,88.6,75.7,87.2z M71.2,79.7c-3.1-5-7.5-8.8-13.3-11.6c-5.7-2.7-13.2-4.6-22.5-5.4C45.2,47.8,55,35.6,65,26
			c9.9-9.5,17.3-14.3,22-14.3c1.2,0,2,0.3,2.6,0.8s0.8,1.4,0.8,2.6c0,2-2.9,12.2-8.7,30.6C77.4,59.4,73.9,70.8,71.2,79.7z"/>
		<path class="st0" d="M449.1,88.8c-3.4,2.1-6.3,3.5-8.8,4.1c2.3-2.3,4.2-6.6,5.6-12.9c1.5-6.3,2.2-13.4,2.2-21.4v-4.9
			c2.1-2,3.8-3.9,4.9-5.7c1.2-1.8,1.8-3.4,1.8-4.7c0-1-0.3-1.8-1-2.5c-0.6-0.7-1.4-1-2.3-1c-1.6,0-2.9,0.8-4,2.5s-2,4.3-2.8,8
			c-3.9,5.2-8.1,10.1-12.7,14.8s-9.5,9-14.7,12.9v0.1c-2.8,2.1-5,3.6-6.7,4.4c-2.1,1.1-3.9,1.7-5.4,1.7h-0.3
			c2.3-3.4,4.2-6.9,5.5-10.4s2-6.6,2-9.1c0-2.2-0.5-4-1.6-5.4s-2.4-2.1-4-2.1c-2.6,0-5.2,1.9-7.8,5.7c-2.6,3.8-3.9,7.9-3.9,12.5
			c0,1.8,0.3,3.5,0.8,5.2s1.3,3.4,2.4,5.2c-2.9,3.3-5.4,5.8-7.6,7.4c-2.2,1.6-4.3,2.4-6.2,2.4c-2.1,0-3.9-1-5.4-3.1
			s-2.2-4.6-2.2-7.6c0-4.5,1.4-9.2,4.2-14.1c2.8-4.9,6.4-8.8,10.8-11.7c1.8-1.2,4-2.3,6.7-3.5s4-2.3,4-3.4c0-0.6-0.2-1.1-0.5-1.5
			s-0.8-0.6-1.3-0.6c-1.2,0-3.2,0.6-5.8,1.7c-2.7,1.1-5.2,2.5-7.5,4.2c-5.1,3.7-9.1,8.1-11.9,13.2c-1.5,2.8-2.7,5.6-3.4,8.4
			c-5.9,4.7-10.8,8.4-14.6,11.2c-4.1,2.9-6.5,4.4-7.2,4.4c-0.2,0-0.4-0.2-0.6-0.4s-0.2-0.5-0.2-0.8c0-0.1,0.1-0.3,0.2-0.6
			s0.3-0.8,0.6-1.5l13.7-29.7c0.6-1.5,1.1-2.6,1.3-3.3c0.2-0.7,0.3-1.3,0.3-1.9c0-1.1-0.2-1.9-0.5-2.5s-0.8-0.8-1.5-0.8
			c-2.6,0-7.2,2.7-13.7,8c-6.6,5.3-16.1,14.3-28.8,26.8L337.1,53h-5.7l-5.8,11.9c-0.6,1.2-2.2,3.1-4.8,5.7c-2.6,2.6-5.6,5.1-9,7.6
			v0.2c-5.5,4.4-10.1,7.9-13.8,10.5c-4.1,2.9-6.5,4.4-7.2,4.4c-0.2,0-0.4-0.1-0.6-0.4c-0.2-0.3-0.3-0.5-0.3-0.8
			c0-0.2,0.1-0.5,0.2-0.8s0.3-0.8,0.5-1.2l12.5-26.9l-5.2-0.5c-9,13.1-15.5,21.8-19.5,26.2s-7.4,6.6-10,6.6c-2.1,0-3.8-0.9-5.1-2.6
			c-1.3-1.8-1.9-4.1-1.9-7.2c0-2.6,0.6-5.2,1.7-7.9s2.8-5.3,4.9-7.8c3.3-3.8,7.7-7,13-9.5s10.4-3.8,15.2-3.8c2,0,3.9,0.3,5.7,0.8
			c1.8,0.6,3.6,1.4,5.4,2.7l0.3-5.1c-1.7-1-3.4-1.8-5.2-2.2c-1.8-0.5-3.8-0.7-6.1-0.7c-5.5,0-11.3,1.4-17.2,4.2
			c-5.9,2.8-11.1,6.6-15.4,11.3c-2.6,2.9-4.5,5.8-5.7,8.7c-0.1,0.3-0.2,0.5-0.3,0.8c-7.3,5.9-12.6,9.8-16,11.9
			c-3.4,2.1-6.3,3.5-8.8,4.1c2.3-2.3,4.2-6.6,5.6-12.9c1.5-6.3,2.2-13.4,2.2-21.4V54c2.1-2,3.8-3.9,4.9-5.7c1.2-1.8,1.8-3.4,1.8-4.7
			c0-1-0.3-1.8-1-2.5c-0.6-0.7-1.4-1-2.3-1c-1.6,0-2.9,0.8-4,2.5s-2,4.3-2.8,8c-3.9,5.2-8.1,10.1-12.7,14.8
			c-4.6,4.7-9.5,9-14.7,12.9v0.1c-9.3,7.3-15.8,12-19.7,14.1c-4.1,2.2-7.8,3.3-11,3.3c-2.9,0-5-0.8-6.5-2.5
			c-1.5-1.6-2.2-4.1-2.2-7.3c0-0.6,0-1.3,0.1-1.9c0.1-0.6,0.2-1.3,0.5-1.9c0.4,0,0.9,0.1,1.3,0.1c0.5,0,1.2,0,2.1,0
			c8.7,0,16-2.3,22.2-7c6.1-4.7,9.2-10,9.2-16c0-2.3-0.7-4.1-2.2-5.4c-1.5-1.3-3.6-1.9-6.3-1.9c-3.2,0-6.7,1-10.5,3.1
			c-3.9,2.1-7.7,5-11.5,8.8c-3.4,3.4-6,7-7.8,10.6c-0.7,1.4-1.2,2.9-1.6,4.3c-1.1,0.8-2.3,1.7-3.6,2.8
			c-11.3,8.6-17.7,12.8-19.1,12.8c-0.7,0-1.3-0.2-1.6-0.5s-0.5-0.9-0.5-1.6c0-0.7,0.5-2.2,1.4-4.3c0.3-0.7,0.5-1.2,0.6-1.6
			l17.2-41.9h9.8l1.6-4.2h-9.7l7.9-18.6c0.8-1.8,1.4-3.3,1.8-4.5c0.4-1.2,0.6-2.1,0.6-2.8c0-0.6-0.2-1.1-0.6-1.5
			c-0.4-0.4-1-0.6-1.8-0.6c-1.6,0-3.4,2.6-5.4,7.9c-0.2,0.6-0.4,1-0.5,1.3l-7.7,18.9h-11.9l-2.1,4.2H155l-7.9,19.5
			c-0.2,0.6-1.8,2.3-4.9,5.1s-6.7,5.8-10.8,9v0.1c-5.7,4.5-10.3,8-13.9,10.6c-4,2.9-6.3,4.3-7,4.3c-0.2,0-0.4-0.2-0.6-0.4
			s-0.2-0.5-0.2-0.8c0-0.1,0.1-0.4,0.2-0.8c0.1-0.4,0.3-0.9,0.5-1.3l9.5-21.1c1.4-3.2,2.3-5.4,2.7-6.6s0.6-2.1,0.6-2.9
			c0-2.2-0.8-3.8-2.3-4.8c-1.6-1-4.2-1.5-7.8-1.5c-0.1,0-0.3,0-0.6,0.1c-1.1,0-2.2,0.1-3.3,0.1c0.2-0.5,0.3-1,0.4-1.5s0.1-1,0.1-1.6
			c0-1.2-0.4-2.1-1.1-2.9c-0.7-0.8-1.7-1.2-2.8-1.2c-1.3,0-2.4,0.5-3.3,1.6s-1.3,2.4-1.3,4.1c0,1,0.2,1.9,0.6,2.6
			c0.4,0.7,1,1.3,1.8,1.8c-2.1,4.5-4.7,8.7-7.8,12.5c-3.1,3.8-6.5,7-10.2,9.6v5.3c4.8-3.4,9-7.3,12.6-11.5c3.7-4.3,6.8-9.1,9.4-14.3
			c1.1,0.1,2.6,0.3,4.5,0.4c3.7,0.3,5.6,1,5.6,2.1c0,0.5-0.6,1.9-1.8,4.4c-0.6,1.3-1.1,2.3-1.4,3.1l-11.2,24.9
			c-0.5,1.1-0.8,2-1.1,2.9c-0.3,0.8-0.4,1.5-0.4,1.9c0,1.1,0.2,2,0.7,2.7s1.1,1,1.8,1c3,0,11.6-5.5,25.9-16.6l1.6-1.2
			c1.5-0.9,3.1-2.1,4.8-3.4c1.9-1.5,3.9-3.3,6.2-5.4l-5.6,13.3c-0.2,0.5-0.5,1.3-1,2.3c-1.2,2.8-1.8,4.9-1.8,6.2
			c0,1.5,0.4,2.6,1.1,3.4c0.8,0.7,1.9,1.1,3.5,1.1c3.6,0,12.4-5.2,26.4-15.6c0,0.3,0,0.5,0,0.8c0,4.8,1.2,8.4,3.5,11
			c2.4,2.6,5.7,3.9,10,3.9c3.7,0,7.8-1.1,12.1-3.4c4.2-2.2,10.9-6.9,20-14.2c2.8-1.8,6.2-4.6,10.2-8.3c4.3-4,9.2-9.1,14.7-15.1
			c0,8.2-0.8,15.1-2.3,20.7c-1.5,5.6-3.8,10.2-6.9,13.8c-0.3,0-0.7,0.1-1.2,0.1c-2.3,0.3-3.8,0.4-4.6,0.4c-1.1,0-2.5-0.1-4.2-0.3
			s-2.8-0.3-3.4-0.3c-1.1,0-1.9,0.1-2.4,0.4c-0.5,0.2-0.7,0.6-0.7,1.1c0,1.3,0.9,2.5,2.6,3.5c1.7,1,3.7,1.5,6,1.5
			c1.2,0,2.6-0.2,4.2-0.7c1.6-0.5,3.6-1.3,6.1-2.5c3.8-0.2,7.6-1.3,11.6-3.2c3.7-1.8,9-5.3,15.9-10.6c-0.1,0.7-0.1,1.3-0.1,2
			c0,4.5,1,8.1,3.1,10.8c2.1,2.8,4.8,4.2,8,4.2s6.3-1.4,9.6-4.1c3.2-2.7,7-7.3,11.3-13.7l-4.3,9.7c-0.6,1.3-1,2.4-1.3,3.4
			s-0.5,1.6-0.5,2.1c0,0.9,0.3,1.6,0.8,2.2c0.5,0.6,1.1,0.9,1.8,0.9c3,0,12.2-5.9,27.4-17.7l0.3-0.2c1.1-0.7,2.3-1.5,3.6-2.5
			c1.5-1.1,3-2.5,4.7-4c-1.1,2-2.6,4.7-4.4,8c-3.9,7.1-5.9,11.3-5.9,12.5c0,1,0.2,1.9,0.7,2.5s1.1,0.9,1.9,0.9
			c1.9,0,4.2-1.8,6.9-5.3c0.8-1,1.4-1.7,1.8-2.2c2.9-3.4,6.1-7,9.8-10.8c3.7-3.8,7.6-7.5,11.8-11.2c3.4-3.1,6.5-5.7,9.2-7.7
			s4.3-3.1,4.9-3.1c0.2,0,0.3,0.1,0.4,0.3s0.1,0.5,0.1,0.9c0,0.2-0.1,0.5-0.3,0.8c-0.2,0.4-0.6,1.3-1.4,2.8l-13,27.3
			c-0.5,1-0.9,2-1.2,2.8c-0.3,0.8-0.4,1.4-0.4,1.9c0,1.1,0.3,2,0.8,2.8c0.5,0.7,1.1,1.1,1.9,1.1c3,0,11.6-5.5,25.9-16.6l1-0.8
			c0,0.5,0,1,0,1.5c0,4.8,1.1,8.5,3.3,11.3c2.2,2.8,5.1,4.2,8.8,4.2c2.8,0,5.7-1,8.7-2.9s6.2-4.9,9.6-8.8c0.2,0,0.5,0.1,0.8,0.1
			c1,0.1,1.6,0.1,1.9,0.1c1.9,0,4.1-0.6,6.4-1.7c1.8-0.9,4-2.3,6.5-4.2c2.9-1.8,6.5-4.7,10.7-8.6c4.3-4,9.2-9.1,14.7-15.1
			c0,8.2-0.8,15.1-2.3,20.7c-1.5,5.6-3.8,10.2-6.9,13.8c-0.3,0-0.7,0.1-1.2,0.1c-2.3,0.3-3.8,0.4-4.6,0.4c-1.1,0-2.5-0.1-4.2-0.3
			s-2.8-0.3-3.4-0.3c-1.1,0-1.9,0.1-2.4,0.4c-0.5,0.2-0.7,0.6-0.7,1.1c0,1.3,0.9,2.5,2.6,3.5s3.7,1.5,6,1.5c1.2,0,2.6-0.2,4.2-0.7
			s3.6-1.3,6.1-2.5c3.8-0.2,7.6-1.3,11.6-3.2s9.8-5.9,17.6-11.9v-5.4C457.8,82.6,452.4,86.7,449.1,88.8z M184.4,62.4
			c4.9-4,9-6,12.5-6c1.2,0,2.2,0.3,2.9,0.9c0.7,0.6,1.1,1.4,1.1,2.5c0,3.9-2.5,7.8-7.6,11.8s-10.6,6-16.6,6c-0.7,0-1.4,0-2.1-0.1
			c-0.7,0-1.4-0.1-2.1-0.2C175.6,71.3,179.6,66.4,184.4,62.4z M401.8,81.3c-0.5-1.1-0.9-2.1-1.1-3.1s-0.3-2-0.4-3
			c0-2.9,0.6-5.7,1.9-8.3s2.5-3.9,3.7-3.9c0.5,0,1,0.3,1.4,0.8s0.6,1.1,0.6,1.8c0,1.5-0.5,3.6-1.6,6.4
			C405.3,74.6,403.8,77.7,401.8,81.3z"/>
		<g>
			<g>
				<path class="st1" d="M503.5,85c-6,19.2-27.5,36.5-59.1,49.8c-37.8,15.9-90.1,26-148,26.6s-110.4-8.5-148.6-23.6
					c-38.1-15.1-61.8-36.3-62-59.9"/>
				<g>
					<g>
						<path class="st2" d="M492.7,83.9c0.9-5.8,6.4-9.8,12.2-8.8c5.8,0.9,9.8,6.4,8.8,12.2c-0.9,5.8-6.4,9.8-12.2,8.8
							C495.7,95.2,491.8,89.7,492.7,83.9z"/>
						<path class="st0" d="M491.3,83.7c-1.1,6.6,3.4,12.8,10,13.9c6.6,1.1,12.8-3.4,13.9-10c1.1-6.6-3.4-12.8-10-13.9
							S492.4,77.1,491.3,83.7C490.3,90.2,492.4,77.1,491.3,83.7z M512.4,87.1c-0.8,5-5.6,8.5-10.6,7.6c-5-0.8-8.5-5.6-7.6-10.6
							c0.8-5,5.6-8.5,10.6-7.6C509.8,77.3,513.2,82.1,512.4,87.1C511.6,92.1,513.2,82.1,512.4,87.1z"/>
					</g>
				</g>
			</g>
		</g>
	</g>
	<g>
		<path d="M255.4,105.9h15.3c8.4,0,12.9,4.5,12.9,10.8c0,5.2-3.1,8.6-6.8,9.6c3.1,0.9,8.4,4,8.4,10.9c0,8.8-6.6,12.7-14.3,12.7
			h-15.6v-44H255.4z M269.6,124.8c7.6,0,10.5-2.8,10.5-7.9c0-4.3-3-7.9-9.2-7.9h-12.2v15.8L269.6,124.8L269.6,124.8z M258.7,146.8
			h12.4c5.8,0,10.6-2.9,10.6-9.4c0-5.6-3.6-9.4-12.4-9.4h-10.6V146.8z"/>
		<path d="M315.4,143.9c0,2.8,0.3,5,0.4,6h-3c-0.3-0.8-0.4-2.1-0.6-4.8c-1.1,2.3-3.8,5.6-10.3,5.6c-7.3,0-10.4-4.7-10.4-9.4
			c0-6.9,5.3-10.1,14.8-10.1c2.6,0,4.7,0,6,0V128c0-3.1-0.9-7.4-8.1-7.4c-6.3,0-7.3,3.3-8,5.9H293c0.4-3.5,2.5-8.8,11.2-8.8
			c7.2,0,11.2,3,11.2,9.9L315.4,143.9L315.4,143.9z M312.3,133.9c-1.2,0-4.1,0-6.2,0c-7,0-11.3,1.8-11.3,7.2c0,4,2.8,6.7,7.2,6.7
			c9,0,10.2-6,10.2-12.8L312.3,133.9L312.3,133.9z"/>
		<path d="M328.9,134.7c2.9-3.1,11.7-12,15.9-16.2h4L336.4,131l14,18.9h-3.9L334.1,133l-5.2,5v11.9h-3.1v-46.3h3.1V134.7z"/>
		<path d="M355.5,134.6c0.1,8.1,4.1,13.1,10.2,13.1c5.9,0,7.9-3.3,9-5.9h3.2c-1.3,4.1-4.7,8.9-12.4,8.9c-9.6,0-13.3-8.2-13.3-16.2
			c0-9,4.5-16.7,13.6-16.7c9.7,0,12.8,8.4,12.8,14.3c0,0.9,0,1.8-0.1,2.6h-23V134.6z M375.4,131.8c-0.1-6.2-3.5-11.1-9.6-11.1
			c-6.5,0-9.4,4.5-10.1,11.1H375.4z"/>
		<path d="M386.3,127c0-5.3-0.1-7.5-0.1-8.5h3.1c0.1,1,0.1,3,0.1,7c1.8-4.7,5.8-7.5,10.9-7.8v3.4c-6.5,0.4-10.9,5-10.9,12.4v16.3
			h-3.1V127z"/>
		<path d="M407.8,118.5c6.3,18,9.1,25.4,10.2,28.8h0.1c1.3-3.8,3.8-11.1,9.9-28.8h3.3l-11.8,33.2c-3.3,9.3-5.6,11.4-11.3,11.4
			c-1.1,0-1.9-0.1-2.9-0.2v-3.1c0.9,0.1,1.8,0.2,2.8,0.2c4.5,0,6-2.2,8.3-8.7l-12-32.8H407.8z"/>
	</g>
</g>
</svg>
